<?xml version="1.0" encoding="UTF-8" standalone="no"?>
<!DOCTYPE svg PUBLIC "-//W3C//DTD SVG 1.1//EN"
 "http://www.w3.org/Graphics/SVG/1.1/DTD/svg11.dtd">
<!-- Generated by graphviz version 2.38.0 (20140413.2041)
 -->
<!-- Title: G Pages: 1 -->
<svg width="358pt" height="279pt"
 viewBox="0.00 0.00 358.00 279.00" xmlns="http://www.w3.org/2000/svg" xmlns:xlink="http://www.w3.org/1999/xlink">
<g id="graph0" class="graph" transform="scale(1 1) rotate(0) translate(4 275)">
<title>G</title>
<polygon fill="white" stroke="none" points="-4,4 -4,-275 354,-275 354,4 -4,4"/>
<!-- Route -->
<g id="node1" class="node"><title>Route</title>
<path fill="#fcf2e3" stroke="none" stroke-width="0.5" d="M202,-199C202,-199 46,-199 46,-199 40,-199 34,-193 34,-187 34,-187 34,-113 34,-113 34,-107 40,-101 46,-101 46,-101 202,-101 202,-101 208,-101 214,-107 214,-113 214,-113 214,-187 214,-187 214,-193 208,-199 202,-199"/>
<text text-anchor="start" x="111.5" y="-186.6" font-family="Verdana" font-size="8.00">Route</text>
<text text-anchor="start" x="44" y="-175.6" font-family="Verdana" font-size="8.00" fill="#8b0000">+ publicID: string</text>
<text text-anchor="start" x="44" y="-164.6" font-family="Verdana" font-size="8.00" fill="#8b0000">+ networkCode: string</text>
<text text-anchor="start" x="44" y="-153.6" font-family="Verdana" font-size="8.00" fill="#8b0000">+ stationCode: string</text>
<text text-anchor="start" x="44" y="-142.6" font-family="Verdana" font-size="8.00" fill="#8b0000">+ locationCode: string</text>
<text text-anchor="start" x="44" y="-131.6" font-family="Verdana" font-size="8.00" fill="#8b0000">+ streamCode: string</text>
<text text-anchor="start" x="44" y="-120.6" font-family="Verdana" font-size="8.00" fill="#8b0000">+ routeArclink: RouteArclink [0..*]</text>
<text text-anchor="start" x="44" y="-109.6" font-family="Verdana" font-size="8.00" fill="#8b0000">+ routeSeedlink: RouteSeedlink [0..*]</text>
</g>
<!-- RouteArclink -->
<g id="node2" class="node"><title>RouteArclink</title>
<path fill="#fcf2e3" stroke="none" stroke-width="0.5" d="M106,-65C106,-65 12,-65 12,-65 6,-65 0,-59 0,-53 0,-53 0,-12 0,-12 0,-6 6,-0 12,-0 12,-0 106,-0 106,-0 112,-0 118,-6 118,-12 118,-12 118,-53 118,-53 118,-59 112,-65 106,-65"/>
<text text-anchor="start" x="33" y="-52.1" font-family="Verdana" font-size="8.00">RouteArclink</text>
<text text-anchor="start" x="10" y="-41.1" font-family="Verdana" font-size="8.00" fill="#8b0000">+ address: string</text>
<text text-anchor="start" x="10" y="-30.1" font-family="Verdana" font-size="8.00" fill="#8b0000">+ start: datetime</text>
<text text-anchor="start" x="10" y="-19.1" font-family="Verdana" font-size="8.00" fill="#8b0000">+ end: datetime &#160;[0..1]</text>
<text text-anchor="start" x="10" y="-8.1" font-family="Verdana" font-size="8.00" fill="#8b0000">+ priority: int &#160;[0..1]</text>
</g>
<!-- Route&#45;&gt;RouteArclink -->
<g id="edge2" class="edge"><title>Route&#45;&gt;RouteArclink</title>
<path fill="none" stroke="#000000" d="M96.8108,-100.687C91.8018,-91.7862 86.6198,-82.5783 81.7583,-73.9397"/>
<polygon fill="#000000" stroke="#000000" points="84.7833,-72.1784 76.8287,-65.1802 78.683,-75.6115 84.7833,-72.1784"/>
</g>
<!-- RouteSeedlink -->
<g id="node3" class="node"><title>RouteSeedlink</title>
<path fill="#fcf2e3" stroke="none" stroke-width="0.5" d="M229.5,-54C229.5,-54 148.5,-54 148.5,-54 142.5,-54 136.5,-48 136.5,-42 136.5,-42 136.5,-23 136.5,-23 136.5,-17 142.5,-11 148.5,-11 148.5,-11 229.5,-11 229.5,-11 235.5,-11 241.5,-17 241.5,-23 241.5,-23 241.5,-42 241.5,-42 241.5,-48 235.5,-54 229.5,-54"/>
<text text-anchor="start" x="159" y="-41.1" font-family="Verdana" font-size="8.00">RouteSeedlink</text>
<text text-anchor="start" x="147" y="-30.1" font-family="Verdana" font-size="8.00" fill="#8b0000">+ address: string</text>
<text text-anchor="start" x="147" y="-19.1" font-family="Verdana" font-size="8.00" fill="#8b0000">+ priority: int &#160;[0..1]</text>
</g>
<!-- Route&#45;&gt;RouteSeedlink -->
<g id="edge3" class="edge"><title>Route&#45;&gt;RouteSeedlink</title>
<path fill="none" stroke="#000000" d="M151.189,-100.687C158.436,-87.8097 166.045,-74.2892 172.522,-62.7804"/>
<polygon fill="#000000" stroke="#000000" points="175.591,-64.4639 177.445,-54.0326 169.49,-61.0308 175.591,-64.4639"/>
</g>
<!-- Access -->
<g id="node4" class="node"><title>Access</title>
<path fill="#fcf2e3" stroke="none" stroke-width="0.5" d="M338,-199C338,-199 244,-199 244,-199 238,-199 232,-193 232,-187 232,-187 232,-113 232,-113 232,-107 238,-101 244,-101 244,-101 338,-101 338,-101 344,-101 350,-107 350,-113 350,-113 350,-187 350,-187 350,-193 344,-199 338,-199"/>
<text text-anchor="start" x="275.5" y="-186.6" font-family="Verdana" font-size="8.00">Access</text>
<text text-anchor="start" x="242" y="-175.6" font-family="Verdana" font-size="8.00" fill="#8b0000">+ networkCode: string</text>
<text text-anchor="start" x="242" y="-164.6" font-family="Verdana" font-size="8.00" fill="#8b0000">+ stationCode: string</text>
<text text-anchor="start" x="242" y="-153.6" font-family="Verdana" font-size="8.00" fill="#8b0000">+ locationCode: string</text>
<text text-anchor="start" x="242" y="-142.6" font-family="Verdana" font-size="8.00" fill="#8b0000">+ streamCode: string</text>
<text text-anchor="start" x="242" y="-131.6" font-family="Verdana" font-size="8.00" fill="#8b0000">+ user: string</text>
<text text-anchor="start" x="242" y="-120.6" font-family="Verdana" font-size="8.00" fill="#8b0000">+ start: datetime</text>
<text text-anchor="start" x="242" y="-109.6" font-family="Verdana" font-size="8.00" fill="#8b0000">+ end: datetime &#160;[0..1]</text>
</g>
<!-- Routing -->
<g id="node5" class="node"><title>Routing</title>
<path fill="#fcf2e3" stroke="none" stroke-width="0.5" d="M222,-271C222,-271 192,-271 192,-271 186,-271 180,-265 180,-259 180,-259 180,-247 180,-247 180,-241 186,-235 192,-235 192,-235 222,-235 222,-235 228,-235 234,-241 234,-247 234,-247 234,-259 234,-259 234,-265 228,-271 222,-271"/>
<text text-anchor="middle" x="207" y="-251.1" font-family="Verdana" font-size="8.00">Routing</text>
</g>
<!-- Routing&#45;&gt;Route -->
<g id="edge1" class="edge"><title>Routing&#45;&gt;Route</title>
<path fill="none" stroke="#000000" d="M192.92,-234.867C186.434,-226.973 178.329,-217.111 169.98,-206.952"/>
<polygon fill="#000000" stroke="#000000" points="172.624,-204.656 163.571,-199.152 167.215,-209.1 172.624,-204.656"/>
</g>
<!-- Routing&#45;&gt;Access -->
<g id="edge4" class="edge"><title>Routing&#45;&gt;Access</title>
<path fill="none" stroke="#000000" d="M221.249,-234.867C227.814,-226.973 236.016,-217.111 244.466,-206.952"/>
<polygon fill="#000000" stroke="#000000" points="247.249,-209.079 250.953,-199.152 241.867,-204.602 247.249,-209.079"/>
</g>
</g>
</svg>
