<?xml version="1.0" encoding="UTF-8" standalone="no"?>
<!DOCTYPE svg PUBLIC "-//W3C//DTD SVG 1.1//EN"
 "http://www.w3.org/Graphics/SVG/1.1/DTD/svg11.dtd">
<!-- Generated by graphviz version 2.38.0 (20140413.2041)
 -->
<!-- Title: G Pages: 1 -->
<svg width="260pt" height="323pt"
 viewBox="0.00 0.00 259.50 323.00" xmlns="http://www.w3.org/2000/svg" xmlns:xlink="http://www.w3.org/1999/xlink">
<g id="graph0" class="graph" transform="scale(1 1) rotate(0) translate(4 319)">
<title>G</title>
<polygon fill="white" stroke="none" points="-4,4 -4,-319 255.5,-319 255.5,4 -4,4"/>
<!-- DataExtent -->
<g id="node1" class="node"><title>DataExtent</title>
<path fill="#fcf2e3" stroke="none" stroke-width="0.5" d="M226,-243C226,-243 26,-243 26,-243 20,-243 14,-237 14,-231 14,-231 14,-135 14,-135 14,-129 20,-123 26,-123 26,-123 226,-123 226,-123 232,-123 238,-129 238,-135 238,-135 238,-231 238,-231 238,-237 232,-243 226,-243"/>
<text text-anchor="start" x="103" y="-230.6" font-family="Verdana" font-size="8.00">DataExtent</text>
<text text-anchor="start" x="24" y="-219.6" font-family="Verdana" font-size="8.00" fill="#8b0000">+ publicID: string</text>
<text text-anchor="start" x="24" y="-208.6" font-family="Verdana" font-size="8.00" fill="#8b0000">+ waveformID: WaveformStreamID</text>
<text text-anchor="start" x="24" y="-197.6" font-family="Verdana" font-size="8.00" fill="#8b0000">+ start: datetime</text>
<text text-anchor="start" x="24" y="-186.6" font-family="Verdana" font-size="8.00" fill="#8b0000">+ end: datetime</text>
<text text-anchor="start" x="24" y="-175.6" font-family="Verdana" font-size="8.00" fill="#8b0000">+ updated: datetime</text>
<text text-anchor="start" x="24" y="-164.6" font-family="Verdana" font-size="8.00" fill="#8b0000">+ lastScan: datetime</text>
<text text-anchor="start" x="24" y="-153.6" font-family="Verdana" font-size="8.00" fill="#8b0000">+ segmentOverflow: boolean</text>
<text text-anchor="start" x="24" y="-142.6" font-family="Verdana" font-size="8.00" fill="#8b0000">+ dataSegment: DataSegment [0..*]</text>
<text text-anchor="start" x="24" y="-131.6" font-family="Verdana" font-size="8.00" fill="#8b0000">+ dataAttributeExtent: DataAttributeExtent [0..*]</text>
</g>
<!-- DataSegment -->
<g id="node2" class="node"><title>DataSegment</title>
<path fill="#fcf2e3" stroke="none" stroke-width="0.5" d="M106,-87C106,-87 12,-87 12,-87 6,-87 0,-81 0,-75 0,-75 0,-12 0,-12 0,-6 6,-0 12,-0 12,-0 106,-0 106,-0 112,-0 118,-6 118,-12 118,-12 118,-75 118,-75 118,-81 112,-87 106,-87"/>
<text text-anchor="start" x="30" y="-74.1" font-family="Verdana" font-size="8.00">DataSegment</text>
<text text-anchor="start" x="10" y="-63.1" font-family="Verdana" font-size="8.00" fill="#8b0000">+ start: datetime</text>
<text text-anchor="start" x="10" y="-52.1" font-family="Verdana" font-size="8.00" fill="#8b0000">+ end: datetime</text>
<text text-anchor="start" x="10" y="-41.1" font-family="Verdana" font-size="8.00" fill="#8b0000">+ updated: datetime</text>
<text text-anchor="start" x="10" y="-30.1" font-family="Verdana" font-size="8.00" fill="#8b0000">+ sampleRate: double</text>
<text text-anchor="start" x="10" y="-19.1" font-family="Verdana" font-size="8.00" fill="#8b0000">+ quality: string</text>
<text text-anchor="start" x="10" y="-8.1" font-family="Verdana" font-size="8.00" fill="#8b0000">+ outOfOrder: boolean</text>
</g>
<!-- DataExtent&#45;&gt;DataSegment -->
<g id="edge2" class="edge"><title>DataExtent&#45;&gt;DataSegment</title>
<path fill="none" stroke="#000000" d="M97.1971,-122.89C92.9255,-114.123 88.55,-105.144 84.3558,-96.5361"/>
<polygon fill="#000000" stroke="#000000" points="87.416,-94.8261 79.8892,-87.3697 81.1233,-97.8924 87.416,-94.8261"/>
</g>
<!-- DataAttributeExtent -->
<g id="node3" class="node"><title>DataAttributeExtent</title>
<path fill="#fcf2e3" stroke="none" stroke-width="0.5" d="M239.5,-87C239.5,-87 148.5,-87 148.5,-87 142.5,-87 136.5,-81 136.5,-75 136.5,-75 136.5,-12 136.5,-12 136.5,-6 142.5,-0 148.5,-0 148.5,-0 239.5,-0 239.5,-0 245.5,-0 251.5,-6 251.5,-12 251.5,-12 251.5,-75 251.5,-75 251.5,-81 245.5,-87 239.5,-87"/>
<text text-anchor="start" x="153.5" y="-74.1" font-family="Verdana" font-size="8.00">DataAttributeExtent</text>
<text text-anchor="start" x="147" y="-63.1" font-family="Verdana" font-size="8.00" fill="#8b0000">+ start: datetime</text>
<text text-anchor="start" x="147" y="-52.1" font-family="Verdana" font-size="8.00" fill="#8b0000">+ end: datetime</text>
<text text-anchor="start" x="147" y="-41.1" font-family="Verdana" font-size="8.00" fill="#8b0000">+ sampleRate: double</text>
<text text-anchor="start" x="147" y="-30.1" font-family="Verdana" font-size="8.00" fill="#8b0000">+ quality: string</text>
<text text-anchor="start" x="147" y="-19.1" font-family="Verdana" font-size="8.00" fill="#8b0000">+ updated: datetime</text>
<text text-anchor="start" x="147" y="-8.1" font-family="Verdana" font-size="8.00" fill="#8b0000">+ segmentCount: int</text>
</g>
<!-- DataExtent&#45;&gt;DataAttributeExtent -->
<g id="edge3" class="edge"><title>DataExtent&#45;&gt;DataAttributeExtent</title>
<path fill="none" stroke="#000000" d="M155.233,-122.89C159.568,-114.123 164.009,-105.144 168.266,-96.5361"/>
<polygon fill="#000000" stroke="#000000" points="171.503,-97.885 172.799,-87.3697 165.229,-94.7819 171.503,-97.885"/>
</g>
<!-- DataAvailability -->
<g id="node4" class="node"><title>DataAvailability</title>
<path fill="#fcf2e3" stroke="none" stroke-width="0.5" d="M154,-315C154,-315 98,-315 98,-315 92,-315 86,-309 86,-303 86,-303 86,-291 86,-291 86,-285 92,-279 98,-279 98,-279 154,-279 154,-279 160,-279 166,-285 166,-291 166,-291 166,-303 166,-303 166,-309 160,-315 154,-315"/>
<text text-anchor="middle" x="126" y="-295.1" font-family="Verdana" font-size="8.00">DataAvailability</text>
</g>
<!-- DataAvailability&#45;&gt;DataExtent -->
<g id="edge1" class="edge"><title>DataAvailability&#45;&gt;DataExtent</title>
<path fill="none" stroke="#000000" d="M126,-278.99C126,-271.723 126,-262.717 126,-253.17"/>
<polygon fill="#000000" stroke="#000000" points="129.5,-253.075 126,-243.075 122.5,-253.075 129.5,-253.075"/>
</g>
</g>
</svg>
