<?xml version="1.0" encoding="UTF-8" standalone="no"?>
<!DOCTYPE svg PUBLIC "-//W3C//DTD SVG 1.1//EN"
 "http://www.w3.org/Graphics/SVG/1.1/DTD/svg11.dtd">
<!-- Generated by graphviz version 2.38.0 (20140413.2041)
 -->
<!-- Title: G Pages: 1 -->
<svg width="548pt" height="222pt"
 viewBox="0.00 0.00 548.00 222.00" xmlns="http://www.w3.org/2000/svg" xmlns:xlink="http://www.w3.org/1999/xlink">
<g id="graph0" class="graph" transform="scale(1 1) rotate(0) translate(4 218)">
<title>G</title>
<polygon fill="white" stroke="none" points="-4,4 -4,-218 544,-218 544,4 -4,4"/>
<!-- QCLog -->
<g id="node1" class="node"><title>QCLog</title>
<path fill="#fcf2e3" stroke="none" stroke-width="0.5" d="M156,-120C156,-120 12,-120 12,-120 6,-120 1.42109e-14,-114 1.42109e-14,-108 1.42109e-14,-108 1.42109e-14,-34 1.42109e-14,-34 1.42109e-14,-28 6,-22 12,-22 12,-22 156,-22 156,-22 162,-22 168,-28 168,-34 168,-34 168,-108 168,-108 168,-114 162,-120 156,-120"/>
<text text-anchor="start" x="70" y="-107.6" font-family="Verdana" font-size="8.00">QCLog</text>
<text text-anchor="start" x="10" y="-96.6" font-family="Verdana" font-size="8.00" fill="#8b0000">+ publicID: string</text>
<text text-anchor="start" x="10" y="-85.6" font-family="Verdana" font-size="8.00" fill="#8b0000">+ waveformID: WaveformStreamID</text>
<text text-anchor="start" x="10" y="-74.6" font-family="Verdana" font-size="8.00" fill="#8b0000">+ creatorID: string</text>
<text text-anchor="start" x="10" y="-63.6" font-family="Verdana" font-size="8.00" fill="#8b0000">+ created: datetime</text>
<text text-anchor="start" x="10" y="-52.6" font-family="Verdana" font-size="8.00" fill="#8b0000">+ start: datetime</text>
<text text-anchor="start" x="10" y="-41.6" font-family="Verdana" font-size="8.00" fill="#8b0000">+ end: datetime</text>
<text text-anchor="start" x="10" y="-30.6" font-family="Verdana" font-size="8.00" fill="#8b0000">+ message: string</text>
</g>
<!-- WaveformQuality -->
<g id="node2" class="node"><title>WaveformQuality</title>
<path fill="#fcf2e3" stroke="none" stroke-width="0.5" d="M342,-142C342,-142 198,-142 198,-142 192,-142 186,-136 186,-130 186,-130 186,-12 186,-12 186,-6 192,-0 198,-0 198,-0 342,-0 342,-0 348,-0 354,-6 354,-12 354,-12 354,-130 354,-130 354,-136 348,-142 342,-142"/>
<text text-anchor="start" x="234.5" y="-129.6" font-family="Verdana" font-size="8.00">WaveformQuality</text>
<text text-anchor="start" x="196" y="-118.6" font-family="Verdana" font-size="8.00" fill="#8b0000">+ waveformID: WaveformStreamID</text>
<text text-anchor="start" x="196" y="-107.6" font-family="Verdana" font-size="8.00" fill="#8b0000">+ creatorID: string</text>
<text text-anchor="start" x="196" y="-96.6" font-family="Verdana" font-size="8.00" fill="#8b0000">+ created: datetime</text>
<text text-anchor="start" x="196" y="-85.6" font-family="Verdana" font-size="8.00" fill="#8b0000">+ start: datetime</text>
<text text-anchor="start" x="196" y="-74.6" font-family="Verdana" font-size="8.00" fill="#8b0000">+ end: datetime &#160;[0..1]</text>
<text text-anchor="start" x="196" y="-63.6" font-family="Verdana" font-size="8.00" fill="#8b0000">+ type: string</text>
<text text-anchor="start" x="196" y="-52.6" font-family="Verdana" font-size="8.00" fill="#8b0000">+ parameter: string</text>
<text text-anchor="start" x="196" y="-41.6" font-family="Verdana" font-size="8.00" fill="#8b0000">+ value: float</text>
<text text-anchor="start" x="196" y="-30.6" font-family="Verdana" font-size="8.00" fill="#8b0000">+ lowerUncertainty: float &#160;[0..1]</text>
<text text-anchor="start" x="196" y="-19.6" font-family="Verdana" font-size="8.00" fill="#8b0000">+ upperUncertainty: float &#160;[0..1]</text>
<text text-anchor="start" x="196" y="-8.6" font-family="Verdana" font-size="8.00" fill="#8b0000">+ windowLength: float &#160;[0..1]</text>
</g>
<!-- Outage -->
<g id="node3" class="node"><title>Outage</title>
<path fill="#fcf2e3" stroke="none" stroke-width="0.5" d="M528,-109C528,-109 384,-109 384,-109 378,-109 372,-103 372,-97 372,-97 372,-45 372,-45 372,-39 378,-33 384,-33 384,-33 528,-33 528,-33 534,-33 540,-39 540,-45 540,-45 540,-97 540,-97 540,-103 534,-109 528,-109"/>
<text text-anchor="start" x="440.5" y="-96.6" font-family="Verdana" font-size="8.00">Outage</text>
<text text-anchor="start" x="382" y="-85.6" font-family="Verdana" font-size="8.00" fill="#8b0000">+ waveformID: WaveformStreamID</text>
<text text-anchor="start" x="382" y="-74.6" font-family="Verdana" font-size="8.00" fill="#8b0000">+ creatorID: string</text>
<text text-anchor="start" x="382" y="-63.6" font-family="Verdana" font-size="8.00" fill="#8b0000">+ created: datetime</text>
<text text-anchor="start" x="382" y="-52.6" font-family="Verdana" font-size="8.00" fill="#8b0000">+ start: datetime</text>
<text text-anchor="start" x="382" y="-41.6" font-family="Verdana" font-size="8.00" fill="#8b0000">+ end: datetime &#160;[0..1]</text>
</g>
<!-- QualityControl -->
<g id="node4" class="node"><title>QualityControl</title>
<path fill="#fcf2e3" stroke="none" stroke-width="0.5" d="M296.5,-214C296.5,-214 243.5,-214 243.5,-214 237.5,-214 231.5,-208 231.5,-202 231.5,-202 231.5,-190 231.5,-190 231.5,-184 237.5,-178 243.5,-178 243.5,-178 296.5,-178 296.5,-178 302.5,-178 308.5,-184 308.5,-190 308.5,-190 308.5,-202 308.5,-202 308.5,-208 302.5,-214 296.5,-214"/>
<text text-anchor="middle" x="270" y="-194.1" font-family="Verdana" font-size="8.00">QualityControl</text>
</g>
<!-- QualityControl&#45;&gt;QCLog -->
<g id="edge1" class="edge"><title>QualityControl&#45;&gt;QCLog</title>
<path fill="none" stroke="#000000" d="M237.547,-177.831C219.4,-167.904 196.566,-154.864 177,-142 169.436,-137.027 161.671,-131.651 154.008,-126.165"/>
<polygon fill="#000000" stroke="#000000" points="155.899,-123.213 145.746,-120.183 151.793,-128.883 155.899,-123.213"/>
</g>
<!-- QualityControl&#45;&gt;WaveformQuality -->
<g id="edge2" class="edge"><title>QualityControl&#45;&gt;WaveformQuality</title>
<path fill="none" stroke="#000000" d="M270,-177.897C270,-170.745 270,-161.876 270,-152.339"/>
<polygon fill="#000000" stroke="#000000" points="273.5,-152.201 270,-142.201 266.5,-152.201 273.5,-152.201"/>
</g>
<!-- QualityControl&#45;&gt;Outage -->
<g id="edge3" class="edge"><title>QualityControl&#45;&gt;Outage</title>
<path fill="none" stroke="#000000" d="M302.453,-177.831C320.6,-167.904 343.434,-154.864 363,-142 375.485,-133.792 388.516,-124.486 400.736,-115.401"/>
<polygon fill="#000000" stroke="#000000" points="403.151,-117.964 409.05,-109.163 398.95,-112.365 403.151,-117.964"/>
</g>
</g>
</svg>
