<?xml version="1.0" encoding="UTF-8" standalone="no"?>
<!DOCTYPE svg PUBLIC "-//W3C//DTD SVG 1.1//EN"
 "http://www.w3.org/Graphics/SVG/1.1/DTD/svg11.dtd">
<!-- Generated by graphviz version 2.38.0 (20140413.2041)
 -->
<!-- Title: G Pages: 1 -->
<svg width="576pt" height="246pt"
 viewBox="0.00 0.00 576.00 246.23" xmlns="http://www.w3.org/2000/svg" xmlns:xlink="http://www.w3.org/1999/xlink">
<g id="graph0" class="graph" transform="scale(0.267347 0.267347) rotate(0) translate(4 917)">
<title>G</title>
<polygon fill="white" stroke="none" points="-4,4 -4,-917 2150.5,-917 2150.5,4 -4,4"/>
<!-- Pick -->
<g id="node1" class="node"><title>Pick</title>
<path fill="#fcf2e3" stroke="none" stroke-width="0.5" d="M624,-802.5C624,-802.5 441,-802.5 441,-802.5 435,-802.5 429,-796.5 429,-790.5 429,-790.5 429,-628.5 429,-628.5 429,-622.5 435,-616.5 441,-616.5 441,-616.5 624,-616.5 624,-616.5 630,-616.5 636,-622.5 636,-628.5 636,-628.5 636,-790.5 636,-790.5 636,-796.5 630,-802.5 624,-802.5"/>
<text text-anchor="start" x="524.5" y="-790.1" font-family="Verdana" font-size="8.00">Pick</text>
<text text-anchor="start" x="439.5" y="-779.1" font-family="Verdana" font-size="8.00" fill="#8b0000">+ publicID: string</text>
<text text-anchor="start" x="439.5" y="-768.1" font-family="Verdana" font-size="8.00" fill="#8b0000">+ time: TimeQuantity</text>
<text text-anchor="start" x="439.5" y="-757.1" font-family="Verdana" font-size="8.00" fill="#8b0000">+ waveformID: WaveformStreamID</text>
<text text-anchor="start" x="439.5" y="-746.1" font-family="Verdana" font-size="8.00" fill="#8b0000">+ filterID: string</text>
<text text-anchor="start" x="439.5" y="-735.1" font-family="Verdana" font-size="8.00" fill="#8b0000">+ methodID: string</text>
<text text-anchor="start" x="439.5" y="-724.1" font-family="Verdana" font-size="8.00" fill="#8b0000">+ horizontalSlowness: RealQuantity &#160;[0..1]</text>
<text text-anchor="start" x="439.5" y="-713.1" font-family="Verdana" font-size="8.00" fill="#8b0000">+ backazimuth: RealQuantity &#160;[0..1]</text>
<text text-anchor="start" x="439.5" y="-702.1" font-family="Verdana" font-size="8.00" fill="#8b0000">+ slownessMethodID: string</text>
<text text-anchor="start" x="439.5" y="-691.1" font-family="Verdana" font-size="8.00" fill="#8b0000">+ onset: PickOnset &#160;[0..1]</text>
<text text-anchor="start" x="439.5" y="-680.1" font-family="Verdana" font-size="8.00" fill="#8b0000">+ phaseHint: Phase &#160;[0..1]</text>
<text text-anchor="start" x="439.5" y="-669.1" font-family="Verdana" font-size="8.00" fill="#8b0000">+ polarity: PickPolarity &#160;[0..1]</text>
<text text-anchor="start" x="439.5" y="-658.1" font-family="Verdana" font-size="8.00" fill="#8b0000">+ evaluationMode: EvaluationMode &#160;[0..1]</text>
<text text-anchor="start" x="439.5" y="-647.1" font-family="Verdana" font-size="8.00" fill="#8b0000">+ evaluationStatus: EvaluationStatus &#160;[0..1]</text>
<text text-anchor="start" x="439.5" y="-636.1" font-family="Verdana" font-size="8.00" fill="#8b0000">+ creationInfo: CreationInfo &#160;[0..1]</text>
<text text-anchor="start" x="439.5" y="-625.1" font-family="Verdana" font-size="8.00" fill="#8b0000">+ comment: Comment [0..*]</text>
</g>
<!-- Comment -->
<g id="node2" class="node"><title>Comment</title>
<path fill="#fcf2e3" stroke="none" stroke-width="0.5" d="M1294,-226.5C1294,-226.5 1151,-226.5 1151,-226.5 1145,-226.5 1139,-220.5 1139,-214.5 1139,-214.5 1139,-162.5 1139,-162.5 1139,-156.5 1145,-150.5 1151,-150.5 1151,-150.5 1294,-150.5 1294,-150.5 1300,-150.5 1306,-156.5 1306,-162.5 1306,-162.5 1306,-214.5 1306,-214.5 1306,-220.5 1300,-226.5 1294,-226.5"/>
<text text-anchor="start" x="1202" y="-214.1" font-family="Verdana" font-size="8.00">Comment</text>
<text text-anchor="start" x="1149.5" y="-203.1" font-family="Verdana" font-size="8.00" fill="#8b0000">+ text: string</text>
<text text-anchor="start" x="1149.5" y="-192.1" font-family="Verdana" font-size="8.00" fill="#8b0000">+ id: string</text>
<text text-anchor="start" x="1149.5" y="-181.1" font-family="Verdana" font-size="8.00" fill="#8b0000">+ start: datetime &#160;[0..1]</text>
<text text-anchor="start" x="1149.5" y="-170.1" font-family="Verdana" font-size="8.00" fill="#8b0000">+ end: datetime &#160;[0..1]</text>
<text text-anchor="start" x="1149.5" y="-159.1" font-family="Verdana" font-size="8.00" fill="#8b0000">+ creationInfo: CreationInfo &#160;[0..1]</text>
</g>
<!-- Pick&#45;&gt;Comment -->
<g id="edge7" class="edge"><title>Pick&#45;&gt;Comment</title>
<path fill="none" stroke="#000000" d="M428.727,-658.035C360.842,-622.634 281.356,-575.781 262.5,-542 232.823,-488.833 221.237,-312.775 262.5,-268 277.093,-252.165 890.062,-210.969 1128.75,-195.493"/>
<polygon fill="#000000" stroke="#000000" points="1129.05,-198.981 1138.8,-194.842 1128.6,-191.996 1129.05,-198.981"/>
</g>
<!-- Amplitude -->
<g id="node3" class="node"><title>Amplitude</title>
<path fill="#fcf2e3" stroke="none" stroke-width="0.5" d="M1186,-808C1186,-808 1013,-808 1013,-808 1007,-808 1001,-802 1001,-796 1001,-796 1001,-623 1001,-623 1001,-617 1007,-611 1013,-611 1013,-611 1186,-611 1186,-611 1192,-611 1198,-617 1198,-623 1198,-623 1198,-796 1198,-796 1198,-802 1192,-808 1186,-808"/>
<text text-anchor="start" x="1078.5" y="-795.1" font-family="Verdana" font-size="8.00">Amplitude</text>
<text text-anchor="start" x="1011.5" y="-784.1" font-family="Verdana" font-size="8.00" fill="#8b0000">+ publicID: string</text>
<text text-anchor="start" x="1011.5" y="-773.1" font-family="Verdana" font-size="8.00" fill="#8b0000">+ type: string</text>
<text text-anchor="start" x="1011.5" y="-762.1" font-family="Verdana" font-size="8.00" fill="#8b0000">+ amplitude: RealQuantity &#160;[0..1]</text>
<text text-anchor="start" x="1011.5" y="-751.1" font-family="Verdana" font-size="8.00" fill="#8b0000">+ timeWindow: TimeWindow &#160;[0..1]</text>
<text text-anchor="start" x="1011.5" y="-740.1" font-family="Verdana" font-size="8.00" fill="#8b0000">+ period: RealQuantity &#160;[0..1]</text>
<text text-anchor="start" x="1011.5" y="-729.1" font-family="Verdana" font-size="8.00" fill="#8b0000">+ snr: float &#160;[0..1]</text>
<text text-anchor="start" x="1011.5" y="-718.1" font-family="Verdana" font-size="8.00" fill="#8b0000">+ unit: string</text>
<text text-anchor="start" x="1011.5" y="-707.1" font-family="Verdana" font-size="8.00" fill="#8b0000">+ pickID: string</text>
<text text-anchor="start" x="1011.5" y="-696.1" font-family="Verdana" font-size="8.00" fill="#8b0000">+ waveformID: WaveformStreamID &#160;[0..1]</text>
<text text-anchor="start" x="1011.5" y="-685.1" font-family="Verdana" font-size="8.00" fill="#8b0000">+ filterID: string</text>
<text text-anchor="start" x="1011.5" y="-674.1" font-family="Verdana" font-size="8.00" fill="#8b0000">+ methodID: string</text>
<text text-anchor="start" x="1011.5" y="-663.1" font-family="Verdana" font-size="8.00" fill="#8b0000">+ scalingTime: TimeQuantity &#160;[0..1]</text>
<text text-anchor="start" x="1011.5" y="-652.1" font-family="Verdana" font-size="8.00" fill="#8b0000">+ magnitudeHint: string</text>
<text text-anchor="start" x="1011.5" y="-641.1" font-family="Verdana" font-size="8.00" fill="#8b0000">+ evaluationMode: EvaluationMode &#160;[0..1]</text>
<text text-anchor="start" x="1011.5" y="-630.1" font-family="Verdana" font-size="8.00" fill="#8b0000">+ creationInfo: CreationInfo &#160;[0..1]</text>
<text text-anchor="start" x="1011.5" y="-619.1" font-family="Verdana" font-size="8.00" fill="#8b0000">+ comment: Comment [0..*]</text>
</g>
<!-- Amplitude&#45;&gt;Comment -->
<g id="edge4" class="edge"><title>Amplitude&#45;&gt;Comment</title>
<path fill="none" stroke="#000000" d="M1179.46,-610.803C1188.57,-599.729 1197.73,-588.614 1206.5,-578 1219.77,-561.947 1229.41,-561.583 1236.5,-542 1274.11,-438.123 1251.77,-305.626 1235.29,-236.411"/>
<polygon fill="#000000" stroke="#000000" points="1238.68,-235.553 1232.91,-226.67 1231.88,-237.215 1238.68,-235.553"/>
</g>
<!-- Reading -->
<g id="node4" class="node"><title>Reading</title>
<path fill="#fcf2e3" stroke="none" stroke-width="0.5" d="M276,-736.5C276,-736.5 69,-736.5 69,-736.5 63,-736.5 57,-730.5 57,-724.5 57,-724.5 57,-694.5 57,-694.5 57,-688.5 63,-682.5 69,-682.5 69,-682.5 276,-682.5 276,-682.5 282,-682.5 288,-688.5 288,-694.5 288,-694.5 288,-724.5 288,-724.5 288,-730.5 282,-736.5 276,-736.5"/>
<text text-anchor="start" x="156" y="-724.1" font-family="Verdana" font-size="8.00">Reading</text>
<text text-anchor="start" x="67.5" y="-713.1" font-family="Verdana" font-size="8.00" fill="#8b0000">+ publicID: string</text>
<text text-anchor="start" x="67.5" y="-702.1" font-family="Verdana" font-size="8.00" fill="#8b0000">+ pickReference: PickReference [0..*]</text>
<text text-anchor="start" x="67.5" y="-691.1" font-family="Verdana" font-size="8.00" fill="#8b0000">+ amplitudeReference: AmplitudeReference [0..*]</text>
</g>
<!-- PickReference -->
<g id="node5" class="node"><title>PickReference</title>
<path fill="#fcf2e3" stroke="none" stroke-width="0.5" d="M203.5,-423C203.5,-423 141.5,-423 141.5,-423 135.5,-423 129.5,-417 129.5,-411 129.5,-411 129.5,-399 129.5,-399 129.5,-393 135.5,-387 141.5,-387 141.5,-387 203.5,-387 203.5,-387 209.5,-387 215.5,-393 215.5,-399 215.5,-399 215.5,-411 215.5,-411 215.5,-417 209.5,-423 203.5,-423"/>
<text text-anchor="start" x="142.5" y="-408.6" font-family="Verdana" font-size="8.00">PickReference</text>
<text text-anchor="start" x="139.5" y="-397.6" font-family="Verdana" font-size="8.00" fill="#8b0000">+ pickID: string</text>
</g>
<!-- Reading&#45;&gt;PickReference -->
<g id="edge12" class="edge"><title>Reading&#45;&gt;PickReference</title>
<path fill="none" stroke="#000000" d="M172.5,-682.447C172.5,-625.631 172.5,-491.055 172.5,-433.204"/>
<polygon fill="#000000" stroke="#000000" points="176,-433.017 172.5,-423.017 169,-433.017 176,-433.017"/>
</g>
<!-- AmplitudeReference -->
<g id="node6" class="node"><title>AmplitudeReference</title>
<path fill="#fcf2e3" stroke="none" stroke-width="0.5" d="M99,-423C99,-423 12,-423 12,-423 6,-423 7.10543e-15,-417 7.10543e-15,-411 7.10543e-15,-411 7.10543e-15,-399 7.10543e-15,-399 7.10543e-15,-393 6,-387 12,-387 12,-387 99,-387 99,-387 105,-387 111,-393 111,-399 111,-399 111,-411 111,-411 111,-417 105,-423 99,-423"/>
<text text-anchor="start" x="13.5" y="-408.6" font-family="Verdana" font-size="8.00">AmplitudeReference</text>
<text text-anchor="start" x="10.5" y="-397.6" font-family="Verdana" font-size="8.00" fill="#8b0000">+ amplitudeID: string</text>
</g>
<!-- Reading&#45;&gt;AmplitudeReference -->
<g id="edge13" class="edge"><title>Reading&#45;&gt;AmplitudeReference</title>
<path fill="none" stroke="#000000" d="M162.423,-682.447C140.357,-625.395 87.9638,-489.934 65.7445,-432.487"/>
<polygon fill="#000000" stroke="#000000" points="68.9534,-431.081 62.0817,-423.017 62.4248,-433.606 68.9534,-431.081"/>
</g>
<!-- Origin -->
<g id="node7" class="node"><title>Origin</title>
<path fill="#fcf2e3" stroke="none" stroke-width="0.5" d="M971,-841C971,-841 788,-841 788,-841 782,-841 776,-835 776,-829 776,-829 776,-590 776,-590 776,-584 782,-578 788,-578 788,-578 971,-578 971,-578 977,-578 983,-584 983,-590 983,-590 983,-829 983,-829 983,-835 977,-841 971,-841"/>
<text text-anchor="start" x="867" y="-828.1" font-family="Verdana" font-size="8.00">Origin</text>
<text text-anchor="start" x="786.5" y="-817.1" font-family="Verdana" font-size="8.00" fill="#8b0000">+ publicID: string</text>
<text text-anchor="start" x="786.5" y="-806.1" font-family="Verdana" font-size="8.00" fill="#8b0000">+ time: TimeQuantity</text>
<text text-anchor="start" x="786.5" y="-795.1" font-family="Verdana" font-size="8.00" fill="#8b0000">+ latitude: RealQuantity</text>
<text text-anchor="start" x="786.5" y="-784.1" font-family="Verdana" font-size="8.00" fill="#8b0000">+ longitude: RealQuantity</text>
<text text-anchor="start" x="786.5" y="-773.1" font-family="Verdana" font-size="8.00" fill="#8b0000">+ depth: RealQuantity &#160;[0..1]</text>
<text text-anchor="start" x="786.5" y="-762.1" font-family="Verdana" font-size="8.00" fill="#8b0000">+ depthType: OriginDepthType &#160;[0..1]</text>
<text text-anchor="start" x="786.5" y="-751.1" font-family="Verdana" font-size="8.00" fill="#8b0000">+ timeFixed: boolean &#160;[0..1]</text>
<text text-anchor="start" x="786.5" y="-740.1" font-family="Verdana" font-size="8.00" fill="#8b0000">+ epicenterFixed: boolean &#160;[0..1]</text>
<text text-anchor="start" x="786.5" y="-729.1" font-family="Verdana" font-size="8.00" fill="#8b0000">+ referenceSystemID: string</text>
<text text-anchor="start" x="786.5" y="-718.1" font-family="Verdana" font-size="8.00" fill="#8b0000">+ methodID: string</text>
<text text-anchor="start" x="786.5" y="-707.1" font-family="Verdana" font-size="8.00" fill="#8b0000">+ earthModelID: string</text>
<text text-anchor="start" x="786.5" y="-696.1" font-family="Verdana" font-size="8.00" fill="#8b0000">+ quality: OriginQuality &#160;[0..1]</text>
<text text-anchor="start" x="786.5" y="-685.1" font-family="Verdana" font-size="8.00" fill="#8b0000">+ uncertainty: OriginUncertainty &#160;[0..1]</text>
<text text-anchor="start" x="786.5" y="-674.1" font-family="Verdana" font-size="8.00" fill="#8b0000">+ type: OriginType &#160;[0..1]</text>
<text text-anchor="start" x="786.5" y="-663.1" font-family="Verdana" font-size="8.00" fill="#8b0000">+ evaluationMode: EvaluationMode &#160;[0..1]</text>
<text text-anchor="start" x="786.5" y="-652.1" font-family="Verdana" font-size="8.00" fill="#8b0000">+ evaluationStatus: EvaluationStatus &#160;[0..1]</text>
<text text-anchor="start" x="786.5" y="-641.1" font-family="Verdana" font-size="8.00" fill="#8b0000">+ creationInfo: CreationInfo &#160;[0..1]</text>
<text text-anchor="start" x="786.5" y="-630.1" font-family="Verdana" font-size="8.00" fill="#8b0000">+ comment: Comment [0..*]</text>
<text text-anchor="start" x="786.5" y="-619.1" font-family="Verdana" font-size="8.00" fill="#8b0000">+ compositeTime: CompositeTime [0..*]</text>
<text text-anchor="start" x="786.5" y="-608.1" font-family="Verdana" font-size="8.00" fill="#8b0000">+ arrival: Arrival [0..*]</text>
<text text-anchor="start" x="786.5" y="-597.1" font-family="Verdana" font-size="8.00" fill="#8b0000">+ stationMagnitude: StationMagnitude [0..*]</text>
<text text-anchor="start" x="786.5" y="-586.1" font-family="Verdana" font-size="8.00" fill="#8b0000">+ magnitude: Magnitude [0..*]</text>
</g>
<!-- Origin&#45;&gt;Comment -->
<g id="edge9" class="edge"><title>Origin&#45;&gt;Comment</title>
<path fill="none" stroke="#000000" d="M983.043,-583.146C985.822,-581.336 988.642,-579.617 991.5,-578 1074.68,-530.938 1139.89,-613.33 1203.5,-542 1242.6,-498.155 1233.79,-322.3 1226.9,-236.736"/>
<polygon fill="#000000" stroke="#000000" points="1230.39,-236.44 1226.08,-226.764 1223.42,-237.019 1230.39,-236.44"/>
</g>
<!-- CompositeTime -->
<g id="node8" class="node"><title>CompositeTime</title>
<path fill="#fcf2e3" stroke="none" stroke-width="0.5" d="M748,-448.5C748,-448.5 613,-448.5 613,-448.5 607,-448.5 601,-442.5 601,-436.5 601,-436.5 601,-373.5 601,-373.5 601,-367.5 607,-361.5 613,-361.5 613,-361.5 748,-361.5 748,-361.5 754,-361.5 760,-367.5 760,-373.5 760,-373.5 760,-436.5 760,-436.5 760,-442.5 754,-448.5 748,-448.5"/>
<text text-anchor="start" x="647.5" y="-435.6" font-family="Verdana" font-size="8.00">CompositeTime</text>
<text text-anchor="start" x="611.5" y="-424.6" font-family="Verdana" font-size="8.00" fill="#8b0000">+ year: IntegerQuantity &#160;[0..1]</text>
<text text-anchor="start" x="611.5" y="-413.6" font-family="Verdana" font-size="8.00" fill="#8b0000">+ month: IntegerQuantity &#160;[0..1]</text>
<text text-anchor="start" x="611.5" y="-402.6" font-family="Verdana" font-size="8.00" fill="#8b0000">+ day: IntegerQuantity &#160;[0..1]</text>
<text text-anchor="start" x="611.5" y="-391.6" font-family="Verdana" font-size="8.00" fill="#8b0000">+ hour: IntegerQuantity &#160;[0..1]</text>
<text text-anchor="start" x="611.5" y="-380.6" font-family="Verdana" font-size="8.00" fill="#8b0000">+ minute: IntegerQuantity &#160;[0..1]</text>
<text text-anchor="start" x="611.5" y="-369.6" font-family="Verdana" font-size="8.00" fill="#8b0000">+ second: RealQuantity &#160;[0..1]</text>
</g>
<!-- Origin&#45;&gt;CompositeTime -->
<g id="edge15" class="edge"><title>Origin&#45;&gt;CompositeTime</title>
<path fill="none" stroke="#000000" d="M792.077,-577.731C784.084,-565.665 776.129,-553.615 768.5,-542 750.121,-514.018 729.806,-482.652 713.33,-457.099"/>
<polygon fill="#000000" stroke="#000000" points="716.257,-455.18 707.898,-448.67 710.373,-458.972 716.257,-455.18"/>
</g>
<!-- Arrival -->
<g id="node9" class="node"><title>Arrival</title>
<path fill="#fcf2e3" stroke="none" stroke-width="0.5" d="M969,-503.5C969,-503.5 790,-503.5 790,-503.5 784,-503.5 778,-497.5 778,-491.5 778,-491.5 778,-318.5 778,-318.5 778,-312.5 784,-306.5 790,-306.5 790,-306.5 969,-306.5 969,-306.5 975,-306.5 981,-312.5 981,-318.5 981,-318.5 981,-491.5 981,-491.5 981,-497.5 975,-503.5 969,-503.5"/>
<text text-anchor="start" x="866" y="-490.6" font-family="Verdana" font-size="8.00">Arrival</text>
<text text-anchor="start" x="788.5" y="-479.6" font-family="Verdana" font-size="8.00" fill="#8b0000">+ pickID: string</text>
<text text-anchor="start" x="788.5" y="-468.6" font-family="Verdana" font-size="8.00" fill="#8b0000">+ phase: Phase</text>
<text text-anchor="start" x="788.5" y="-457.6" font-family="Verdana" font-size="8.00" fill="#8b0000">+ timeCorrection: float &#160;[0..1]</text>
<text text-anchor="start" x="788.5" y="-446.6" font-family="Verdana" font-size="8.00" fill="#8b0000">+ azimuth: float &#160;[0..1]</text>
<text text-anchor="start" x="788.5" y="-435.6" font-family="Verdana" font-size="8.00" fill="#8b0000">+ distance: float &#160;[0..1]</text>
<text text-anchor="start" x="788.5" y="-424.6" font-family="Verdana" font-size="8.00" fill="#8b0000">+ takeOffAngle: float &#160;[0..1]</text>
<text text-anchor="start" x="788.5" y="-413.6" font-family="Verdana" font-size="8.00" fill="#8b0000">+ timeResidual: float &#160;[0..1]</text>
<text text-anchor="start" x="788.5" y="-402.6" font-family="Verdana" font-size="8.00" fill="#8b0000">+ horizontalSlownessResidual: float &#160;[0..1]</text>
<text text-anchor="start" x="788.5" y="-391.6" font-family="Verdana" font-size="8.00" fill="#8b0000">+ backazimuthResidual: float &#160;[0..1]</text>
<text text-anchor="start" x="788.5" y="-380.6" font-family="Verdana" font-size="8.00" fill="#8b0000">+ timeUsed: boolean &#160;[0..1]</text>
<text text-anchor="start" x="788.5" y="-369.6" font-family="Verdana" font-size="8.00" fill="#8b0000">+ horizontalSlownessUsed: boolean &#160;[0..1]</text>
<text text-anchor="start" x="788.5" y="-358.6" font-family="Verdana" font-size="8.00" fill="#8b0000">+ backazimuthUsed: boolean &#160;[0..1]</text>
<text text-anchor="start" x="788.5" y="-347.6" font-family="Verdana" font-size="8.00" fill="#8b0000">+ weight: float &#160;[0..1]</text>
<text text-anchor="start" x="788.5" y="-336.6" font-family="Verdana" font-size="8.00" fill="#8b0000">+ earthModelID: string</text>
<text text-anchor="start" x="788.5" y="-325.6" font-family="Verdana" font-size="8.00" fill="#8b0000">+ preliminary: boolean &#160;[0..1]</text>
<text text-anchor="start" x="788.5" y="-314.6" font-family="Verdana" font-size="8.00" fill="#8b0000">+ creationInfo: CreationInfo &#160;[0..1]</text>
</g>
<!-- Origin&#45;&gt;Arrival -->
<g id="edge16" class="edge"><title>Origin&#45;&gt;Arrival</title>
<path fill="none" stroke="#000000" d="M879.5,-577.578C879.5,-556.309 879.5,-534.494 879.5,-513.856"/>
<polygon fill="#000000" stroke="#000000" points="883,-513.826 879.5,-503.826 876,-513.826 883,-513.826"/>
</g>
<!-- StationMagnitude -->
<g id="node10" class="node"><title>StationMagnitude</title>
<path fill="#fcf2e3" stroke="none" stroke-width="0.5" d="M1182.5,-470.5C1182.5,-470.5 1010.5,-470.5 1010.5,-470.5 1004.5,-470.5 998.5,-464.5 998.5,-458.5 998.5,-458.5 998.5,-351.5 998.5,-351.5 998.5,-345.5 1004.5,-339.5 1010.5,-339.5 1010.5,-339.5 1182.5,-339.5 1182.5,-339.5 1188.5,-339.5 1194.5,-345.5 1194.5,-351.5 1194.5,-351.5 1194.5,-458.5 1194.5,-458.5 1194.5,-464.5 1188.5,-470.5 1182.5,-470.5"/>
<text text-anchor="start" x="1059.5" y="-457.6" font-family="Verdana" font-size="8.00">StationMagnitude</text>
<text text-anchor="start" x="1008.5" y="-446.6" font-family="Verdana" font-size="8.00" fill="#8b0000">+ publicID: string</text>
<text text-anchor="start" x="1008.5" y="-435.6" font-family="Verdana" font-size="8.00" fill="#8b0000">+ originID: string</text>
<text text-anchor="start" x="1008.5" y="-424.6" font-family="Verdana" font-size="8.00" fill="#8b0000">+ magnitude: RealQuantity</text>
<text text-anchor="start" x="1008.5" y="-413.6" font-family="Verdana" font-size="8.00" fill="#8b0000">+ type: string</text>
<text text-anchor="start" x="1008.5" y="-402.6" font-family="Verdana" font-size="8.00" fill="#8b0000">+ amplitudeID: string</text>
<text text-anchor="start" x="1008.5" y="-391.6" font-family="Verdana" font-size="8.00" fill="#8b0000">+ methodID: string</text>
<text text-anchor="start" x="1008.5" y="-380.6" font-family="Verdana" font-size="8.00" fill="#8b0000">+ waveformID: WaveformStreamID &#160;[0..1]</text>
<text text-anchor="start" x="1008.5" y="-369.6" font-family="Verdana" font-size="8.00" fill="#8b0000">+ passedQC: boolean &#160;[0..1]</text>
<text text-anchor="start" x="1008.5" y="-358.6" font-family="Verdana" font-size="8.00" fill="#8b0000">+ creationInfo: CreationInfo &#160;[0..1]</text>
<text text-anchor="start" x="1008.5" y="-347.6" font-family="Verdana" font-size="8.00" fill="#8b0000">+ comment: Comment [0..*]</text>
</g>
<!-- Origin&#45;&gt;StationMagnitude -->
<g id="edge17" class="edge"><title>Origin&#45;&gt;StationMagnitude</title>
<path fill="none" stroke="#000000" d="M973.417,-577.578C997.708,-543.717 1022.99,-508.471 1044.28,-478.797"/>
<polygon fill="#000000" stroke="#000000" points="1047.19,-480.746 1050.17,-470.581 1041.5,-476.666 1047.19,-480.746"/>
</g>
<!-- Magnitude -->
<g id="node11" class="node"><title>Magnitude</title>
<path fill="#fcf2e3" stroke="none" stroke-width="0.5" d="M571,-476C571,-476 284,-476 284,-476 278,-476 272,-470 272,-464 272,-464 272,-346 272,-346 272,-340 278,-334 284,-334 284,-334 571,-334 571,-334 577,-334 583,-340 583,-346 583,-346 583,-464 583,-464 583,-470 577,-476 571,-476"/>
<text text-anchor="start" x="406" y="-463.6" font-family="Verdana" font-size="8.00">Magnitude</text>
<text text-anchor="start" x="282.5" y="-452.6" font-family="Verdana" font-size="8.00" fill="#8b0000">+ publicID: string</text>
<text text-anchor="start" x="282.5" y="-441.6" font-family="Verdana" font-size="8.00" fill="#8b0000">+ magnitude: RealQuantity</text>
<text text-anchor="start" x="282.5" y="-430.6" font-family="Verdana" font-size="8.00" fill="#8b0000">+ type: string</text>
<text text-anchor="start" x="282.5" y="-419.6" font-family="Verdana" font-size="8.00" fill="#8b0000">+ originID: string</text>
<text text-anchor="start" x="282.5" y="-408.6" font-family="Verdana" font-size="8.00" fill="#8b0000">+ methodID: string</text>
<text text-anchor="start" x="282.5" y="-397.6" font-family="Verdana" font-size="8.00" fill="#8b0000">+ stationCount: int &#160;[0..1]</text>
<text text-anchor="start" x="282.5" y="-386.6" font-family="Verdana" font-size="8.00" fill="#8b0000">+ azimuthalGap: float &#160;[0..1]</text>
<text text-anchor="start" x="282.5" y="-375.6" font-family="Verdana" font-size="8.00" fill="#8b0000">+ evaluationStatus: EvaluationStatus &#160;[0..1]</text>
<text text-anchor="start" x="282.5" y="-364.6" font-family="Verdana" font-size="8.00" fill="#8b0000">+ creationInfo: CreationInfo &#160;[0..1]</text>
<text text-anchor="start" x="282.5" y="-353.6" font-family="Verdana" font-size="8.00" fill="#8b0000">+ comment: Comment [0..*]</text>
<text text-anchor="start" x="282.5" y="-342.6" font-family="Verdana" font-size="8.00" fill="#8b0000">+ stationMagnitudeContribution: StationMagnitudeContribution [0..*]</text>
</g>
<!-- Origin&#45;&gt;Magnitude -->
<g id="edge18" class="edge"><title>Origin&#45;&gt;Magnitude</title>
<path fill="none" stroke="#000000" d="M775.967,-654.176C719.958,-623.429 650.389,-583.006 591.5,-542 565.616,-523.976 538.78,-502.871 514.498,-482.736"/>
<polygon fill="#000000" stroke="#000000" points="516.629,-479.956 506.708,-476.238 512.145,-485.331 516.629,-479.956"/>
</g>
<!-- StationMagnitude&#45;&gt;Comment -->
<g id="edge6" class="edge"><title>StationMagnitude&#45;&gt;Comment</title>
<path fill="none" stroke="#000000" d="M1134.48,-339.352C1154.19,-305.783 1177.82,-265.564 1195.63,-235.248"/>
<polygon fill="#000000" stroke="#000000" points="1198.67,-236.971 1200.72,-226.576 1192.64,-233.425 1198.67,-236.971"/>
</g>
<!-- Magnitude&#45;&gt;Comment -->
<g id="edge5" class="edge"><title>Magnitude&#45;&gt;Comment</title>
<path fill="none" stroke="#000000" d="M494.155,-333.955C521.856,-309.06 555.851,-283.412 591.5,-268 685.91,-227.185 977.209,-204.196 1128.74,-194.707"/>
<polygon fill="#000000" stroke="#000000" points="1129.2,-198.186 1138.96,-194.075 1128.76,-191.199 1129.2,-198.186"/>
</g>
<!-- StationMagnitudeContribution -->
<g id="node12" class="node"><title>StationMagnitudeContribution</title>
<path fill="#fcf2e3" stroke="none" stroke-width="0.5" d="M488.5,-215.5C488.5,-215.5 366.5,-215.5 366.5,-215.5 360.5,-215.5 354.5,-209.5 354.5,-203.5 354.5,-203.5 354.5,-173.5 354.5,-173.5 354.5,-167.5 360.5,-161.5 366.5,-161.5 366.5,-161.5 488.5,-161.5 488.5,-161.5 494.5,-161.5 500.5,-167.5 500.5,-173.5 500.5,-173.5 500.5,-203.5 500.5,-203.5 500.5,-209.5 494.5,-215.5 488.5,-215.5"/>
<text text-anchor="start" x="364.5" y="-203.1" font-family="Verdana" font-size="8.00">StationMagnitudeContribution</text>
<text text-anchor="start" x="364.5" y="-192.1" font-family="Verdana" font-size="8.00" fill="#8b0000">+ stationMagnitudeID: string</text>
<text text-anchor="start" x="364.5" y="-181.1" font-family="Verdana" font-size="8.00" fill="#8b0000">+ residual: float &#160;[0..1]</text>
<text text-anchor="start" x="364.5" y="-170.1" font-family="Verdana" font-size="8.00" fill="#8b0000">+ weight: float &#160;[0..1]</text>
</g>
<!-- Magnitude&#45;&gt;StationMagnitudeContribution -->
<g id="edge19" class="edge"><title>Magnitude&#45;&gt;StationMagnitudeContribution</title>
<path fill="none" stroke="#000000" d="M427.5,-333.765C427.5,-297.746 427.5,-255.378 427.5,-225.914"/>
<polygon fill="#000000" stroke="#000000" points="431,-225.678 427.5,-215.678 424,-225.678 431,-225.678"/>
</g>
<!-- FocalMechanism -->
<g id="node13" class="node"><title>FocalMechanism</title>
<path fill="#fcf2e3" stroke="none" stroke-width="0.5" d="M1411,-797C1411,-797 1228,-797 1228,-797 1222,-797 1216,-791 1216,-785 1216,-785 1216,-634 1216,-634 1216,-628 1222,-622 1228,-622 1228,-622 1411,-622 1411,-622 1417,-622 1423,-628 1423,-634 1423,-634 1423,-785 1423,-785 1423,-791 1417,-797 1411,-797"/>
<text text-anchor="start" x="1285" y="-784.1" font-family="Verdana" font-size="8.00">FocalMechanism</text>
<text text-anchor="start" x="1226.5" y="-773.1" font-family="Verdana" font-size="8.00" fill="#8b0000">+ publicID: string</text>
<text text-anchor="start" x="1226.5" y="-762.1" font-family="Verdana" font-size="8.00" fill="#8b0000">+ triggeringOriginID: string</text>
<text text-anchor="start" x="1226.5" y="-751.1" font-family="Verdana" font-size="8.00" fill="#8b0000">+ nodalPlanes: NodalPlanes &#160;[0..1]</text>
<text text-anchor="start" x="1226.5" y="-740.1" font-family="Verdana" font-size="8.00" fill="#8b0000">+ principalAxes: PrincipalAxes &#160;[0..1]</text>
<text text-anchor="start" x="1226.5" y="-729.1" font-family="Verdana" font-size="8.00" fill="#8b0000">+ azimuthalGap: float &#160;[0..1]</text>
<text text-anchor="start" x="1226.5" y="-718.1" font-family="Verdana" font-size="8.00" fill="#8b0000">+ stationPolarityCount: int &#160;[0..1]</text>
<text text-anchor="start" x="1226.5" y="-707.1" font-family="Verdana" font-size="8.00" fill="#8b0000">+ misfit: float &#160;[0..1]</text>
<text text-anchor="start" x="1226.5" y="-696.1" font-family="Verdana" font-size="8.00" fill="#8b0000">+ stationDistributionRatio: float &#160;[0..1]</text>
<text text-anchor="start" x="1226.5" y="-685.1" font-family="Verdana" font-size="8.00" fill="#8b0000">+ methodID: string</text>
<text text-anchor="start" x="1226.5" y="-674.1" font-family="Verdana" font-size="8.00" fill="#8b0000">+ evaluationMode: EvaluationMode &#160;[0..1]</text>
<text text-anchor="start" x="1226.5" y="-663.1" font-family="Verdana" font-size="8.00" fill="#8b0000">+ evaluationStatus: EvaluationStatus &#160;[0..1]</text>
<text text-anchor="start" x="1226.5" y="-652.1" font-family="Verdana" font-size="8.00" fill="#8b0000">+ creationInfo: CreationInfo &#160;[0..1]</text>
<text text-anchor="start" x="1226.5" y="-641.1" font-family="Verdana" font-size="8.00" fill="#8b0000">+ comment: Comment [0..*]</text>
<text text-anchor="start" x="1226.5" y="-630.1" font-family="Verdana" font-size="8.00" fill="#8b0000">+ momentTensor: MomentTensor [0..*]</text>
</g>
<!-- FocalMechanism&#45;&gt;Comment -->
<g id="edge3" class="edge"><title>FocalMechanism&#45;&gt;Comment</title>
<path fill="none" stroke="#000000" d="M1322.71,-621.793C1323.34,-530.962 1316.5,-385.444 1274.5,-268 1270.46,-256.696 1264.46,-245.417 1257.95,-235.08"/>
<polygon fill="#000000" stroke="#000000" points="1260.82,-233.071 1252.4,-226.638 1254.97,-236.917 1260.82,-233.071"/>
</g>
<!-- MomentTensor -->
<g id="node14" class="node"><title>MomentTensor</title>
<path fill="#fcf2e3" stroke="none" stroke-width="0.5" d="M1704,-542C1704,-542 1377,-542 1377,-542 1371,-542 1365,-536 1365,-530 1365,-530 1365,-280 1365,-280 1365,-274 1371,-268 1377,-268 1377,-268 1704,-268 1704,-268 1710,-268 1716,-274 1716,-280 1716,-280 1716,-530 1716,-530 1716,-536 1710,-542 1704,-542"/>
<text text-anchor="start" x="1509.5" y="-529.6" font-family="Verdana" font-size="8.00">MomentTensor</text>
<text text-anchor="start" x="1375.5" y="-518.6" font-family="Verdana" font-size="8.00" fill="#8b0000">+ publicID: string</text>
<text text-anchor="start" x="1375.5" y="-507.6" font-family="Verdana" font-size="8.00" fill="#8b0000">+ derivedOriginID: string</text>
<text text-anchor="start" x="1375.5" y="-496.6" font-family="Verdana" font-size="8.00" fill="#8b0000">+ momentMagnitudeID: string</text>
<text text-anchor="start" x="1375.5" y="-485.6" font-family="Verdana" font-size="8.00" fill="#8b0000">+ scalarMoment: RealQuantity &#160;[0..1]</text>
<text text-anchor="start" x="1375.5" y="-474.6" font-family="Verdana" font-size="8.00" fill="#8b0000">+ tensor: Tensor &#160;[0..1]</text>
<text text-anchor="start" x="1375.5" y="-463.6" font-family="Verdana" font-size="8.00" fill="#8b0000">+ variance: float &#160;[0..1]</text>
<text text-anchor="start" x="1375.5" y="-452.6" font-family="Verdana" font-size="8.00" fill="#8b0000">+ varianceReduction: float &#160;[0..1]</text>
<text text-anchor="start" x="1375.5" y="-441.6" font-family="Verdana" font-size="8.00" fill="#8b0000">+ doubleCouple: float &#160;[0..1]</text>
<text text-anchor="start" x="1375.5" y="-430.6" font-family="Verdana" font-size="8.00" fill="#8b0000">+ clvd: float &#160;[0..1]</text>
<text text-anchor="start" x="1375.5" y="-419.6" font-family="Verdana" font-size="8.00" fill="#8b0000">+ iso: float &#160;[0..1]</text>
<text text-anchor="start" x="1375.5" y="-408.6" font-family="Verdana" font-size="8.00" fill="#8b0000">+ greensFunctionID: string</text>
<text text-anchor="start" x="1375.5" y="-397.6" font-family="Verdana" font-size="8.00" fill="#8b0000">+ filterID: string</text>
<text text-anchor="start" x="1375.5" y="-386.6" font-family="Verdana" font-size="8.00" fill="#8b0000">+ sourceTimeFunction: SourceTimeFunction &#160;[0..1]</text>
<text text-anchor="start" x="1375.5" y="-375.6" font-family="Verdana" font-size="8.00" fill="#8b0000">+ methodID: string</text>
<text text-anchor="start" x="1375.5" y="-364.6" font-family="Verdana" font-size="8.00" fill="#8b0000">+ method: MomentTensorMethod &#160;[0..1]</text>
<text text-anchor="start" x="1375.5" y="-353.6" font-family="Verdana" font-size="8.00" fill="#8b0000">+ status: MomentTensorStatus &#160;[0..1]</text>
<text text-anchor="start" x="1375.5" y="-342.6" font-family="Verdana" font-size="8.00" fill="#8b0000">+ cmtName: string</text>
<text text-anchor="start" x="1375.5" y="-331.6" font-family="Verdana" font-size="8.00" fill="#8b0000">+ cmtVersion: string</text>
<text text-anchor="start" x="1375.5" y="-320.6" font-family="Verdana" font-size="8.00" fill="#8b0000">+ creationInfo: CreationInfo &#160;[0..1]</text>
<text text-anchor="start" x="1375.5" y="-309.6" font-family="Verdana" font-size="8.00" fill="#8b0000">+ comment: Comment [0..*]</text>
<text text-anchor="start" x="1375.5" y="-298.6" font-family="Verdana" font-size="8.00" fill="#8b0000">+ dataUsed: DataUsed [0..*]</text>
<text text-anchor="start" x="1375.5" y="-287.6" font-family="Verdana" font-size="8.00" fill="#8b0000">+ momentTensorPhaseSetting: MomentTensorPhaseSetting [0..*]</text>
<text text-anchor="start" x="1375.5" y="-276.6" font-family="Verdana" font-size="8.00" fill="#8b0000">+ momentTensorStationContribution: MomentTensorStationContribution [0..*]</text>
</g>
<!-- FocalMechanism&#45;&gt;MomentTensor -->
<g id="edge21" class="edge"><title>FocalMechanism&#45;&gt;MomentTensor</title>
<path fill="none" stroke="#000000" d="M1382.83,-621.816C1399.16,-599.464 1417.18,-574.796 1435.03,-550.368"/>
<polygon fill="#000000" stroke="#000000" points="1438,-552.236 1441.07,-542.097 1432.35,-548.107 1438,-552.236"/>
</g>
<!-- MomentTensor&#45;&gt;Comment -->
<g id="edge2" class="edge"><title>MomentTensor&#45;&gt;Comment</title>
<path fill="none" stroke="#000000" d="M1364.83,-277.592C1360.02,-274.342 1355.23,-271.139 1350.5,-268 1332.31,-255.933 1312.32,-243.362 1293.66,-231.906"/>
<polygon fill="#000000" stroke="#000000" points="1295.27,-228.785 1284.91,-226.554 1291.62,-234.757 1295.27,-228.785"/>
</g>
<!-- DataUsed -->
<g id="node15" class="node"><title>DataUsed</title>
<path fill="#fcf2e3" stroke="none" stroke-width="0.5" d="M1469.5,-221C1469.5,-221 1335.5,-221 1335.5,-221 1329.5,-221 1323.5,-215 1323.5,-209 1323.5,-209 1323.5,-168 1323.5,-168 1323.5,-162 1329.5,-156 1335.5,-156 1335.5,-156 1469.5,-156 1469.5,-156 1475.5,-156 1481.5,-162 1481.5,-168 1481.5,-168 1481.5,-209 1481.5,-209 1481.5,-215 1475.5,-221 1469.5,-221"/>
<text text-anchor="start" x="1381.5" y="-208.1" font-family="Verdana" font-size="8.00">DataUsed</text>
<text text-anchor="start" x="1333.5" y="-197.1" font-family="Verdana" font-size="8.00" fill="#8b0000">+ waveType: DataUsedWaveType</text>
<text text-anchor="start" x="1333.5" y="-186.1" font-family="Verdana" font-size="8.00" fill="#8b0000">+ stationCount: int</text>
<text text-anchor="start" x="1333.5" y="-175.1" font-family="Verdana" font-size="8.00" fill="#8b0000">+ componentCount: int</text>
<text text-anchor="start" x="1333.5" y="-164.1" font-family="Verdana" font-size="8.00" fill="#8b0000">+ shortestPeriod: float &#160;[0..1]</text>
</g>
<!-- MomentTensor&#45;&gt;DataUsed -->
<g id="edge22" class="edge"><title>MomentTensor&#45;&gt;DataUsed</title>
<path fill="none" stroke="#000000" d="M1452.91,-267.85C1444.16,-254.247 1435.83,-241.314 1428.57,-230.019"/>
<polygon fill="#000000" stroke="#000000" points="1431.33,-227.847 1422.98,-221.331 1425.45,-231.634 1431.33,-227.847"/>
</g>
<!-- MomentTensorPhaseSetting -->
<g id="node16" class="node"><title>MomentTensorPhaseSetting</title>
<path fill="#fcf2e3" stroke="none" stroke-width="0.5" d="M1653.5,-226.5C1653.5,-226.5 1511.5,-226.5 1511.5,-226.5 1505.5,-226.5 1499.5,-220.5 1499.5,-214.5 1499.5,-214.5 1499.5,-162.5 1499.5,-162.5 1499.5,-156.5 1505.5,-150.5 1511.5,-150.5 1511.5,-150.5 1653.5,-150.5 1653.5,-150.5 1659.5,-150.5 1665.5,-156.5 1665.5,-162.5 1665.5,-162.5 1665.5,-214.5 1665.5,-214.5 1665.5,-220.5 1659.5,-226.5 1653.5,-226.5"/>
<text text-anchor="start" x="1523" y="-214.1" font-family="Verdana" font-size="8.00">MomentTensorPhaseSetting</text>
<text text-anchor="start" x="1509.5" y="-203.1" font-family="Verdana" font-size="8.00" fill="#8b0000">+ code: string</text>
<text text-anchor="start" x="1509.5" y="-192.1" font-family="Verdana" font-size="8.00" fill="#8b0000">+ lowerPeriod: float</text>
<text text-anchor="start" x="1509.5" y="-181.1" font-family="Verdana" font-size="8.00" fill="#8b0000">+ upperPeriod: float</text>
<text text-anchor="start" x="1509.5" y="-170.1" font-family="Verdana" font-size="8.00" fill="#8b0000">+ minimumSNR: float &#160;[0..1]</text>
<text text-anchor="start" x="1509.5" y="-159.1" font-family="Verdana" font-size="8.00" fill="#8b0000">+ maximumTimeShift: float &#160;[0..1]</text>
</g>
<!-- MomentTensor&#45;&gt;MomentTensorPhaseSetting -->
<g id="edge23" class="edge"><title>MomentTensor&#45;&gt;MomentTensorPhaseSetting</title>
<path fill="none" stroke="#000000" d="M1567.16,-267.85C1569.3,-256.894 1571.36,-246.372 1573.24,-236.791"/>
<polygon fill="#000000" stroke="#000000" points="1576.71,-237.275 1575.2,-226.788 1569.84,-235.929 1576.71,-237.275"/>
</g>
<!-- MomentTensorStationContribution -->
<g id="node17" class="node"><title>MomentTensorStationContribution</title>
<path fill="#fcf2e3" stroke="none" stroke-width="0.5" d="M2059.5,-232C2059.5,-232 1695.5,-232 1695.5,-232 1689.5,-232 1683.5,-226 1683.5,-220 1683.5,-220 1683.5,-157 1683.5,-157 1683.5,-151 1689.5,-145 1695.5,-145 1695.5,-145 2059.5,-145 2059.5,-145 2065.5,-145 2071.5,-151 2071.5,-157 2071.5,-157 2071.5,-220 2071.5,-220 2071.5,-226 2065.5,-232 2059.5,-232"/>
<text text-anchor="start" x="1805" y="-219.1" font-family="Verdana" font-size="8.00">MomentTensorStationContribution</text>
<text text-anchor="start" x="1693.5" y="-208.1" font-family="Verdana" font-size="8.00" fill="#8b0000">+ publicID: string</text>
<text text-anchor="start" x="1693.5" y="-197.1" font-family="Verdana" font-size="8.00" fill="#8b0000">+ active: boolean</text>
<text text-anchor="start" x="1693.5" y="-186.1" font-family="Verdana" font-size="8.00" fill="#8b0000">+ waveformID: WaveformStreamID &#160;[0..1]</text>
<text text-anchor="start" x="1693.5" y="-175.1" font-family="Verdana" font-size="8.00" fill="#8b0000">+ weight: float &#160;[0..1]</text>
<text text-anchor="start" x="1693.5" y="-164.1" font-family="Verdana" font-size="8.00" fill="#8b0000">+ timeShift: float &#160;[0..1]</text>
<text text-anchor="start" x="1693.5" y="-153.1" font-family="Verdana" font-size="8.00" fill="#8b0000">+ momentTensorComponentContribution: MomentTensorComponentContribution [0..*]</text>
</g>
<!-- MomentTensor&#45;&gt;MomentTensorStationContribution -->
<g id="edge24" class="edge"><title>MomentTensor&#45;&gt;MomentTensorStationContribution</title>
<path fill="none" stroke="#000000" d="M1716.06,-273.938C1719.22,-271.925 1722.37,-269.944 1725.5,-268 1742.85,-257.235 1761.84,-246.59 1780.35,-236.778"/>
<polygon fill="#000000" stroke="#000000" points="1782.16,-239.78 1789.38,-232.031 1778.9,-233.584 1782.16,-239.78"/>
</g>
<!-- MomentTensorComponentContribution -->
<g id="node18" class="node"><title>MomentTensorComponentContribution</title>
<path fill="#fcf2e3" stroke="none" stroke-width="0.5" d="M1957,-109C1957,-109 1798,-109 1798,-109 1792,-109 1786,-103 1786,-97 1786,-97 1786,-12 1786,-12 1786,-6 1792,-0 1798,-0 1798,-0 1957,-0 1957,-0 1963,-0 1969,-6 1969,-12 1969,-12 1969,-97 1969,-97 1969,-103 1963,-109 1957,-109"/>
<text text-anchor="start" x="1796.5" y="-96.1" font-family="Verdana" font-size="8.00">MomentTensorComponentContribution</text>
<text text-anchor="start" x="1796.5" y="-85.1" font-family="Verdana" font-size="8.00" fill="#8b0000">+ phaseCode: string</text>
<text text-anchor="start" x="1796.5" y="-74.1" font-family="Verdana" font-size="8.00" fill="#8b0000">+ component: int</text>
<text text-anchor="start" x="1796.5" y="-63.1" font-family="Verdana" font-size="8.00" fill="#8b0000">+ active: boolean</text>
<text text-anchor="start" x="1796.5" y="-52.1" font-family="Verdana" font-size="8.00" fill="#8b0000">+ weight: float</text>
<text text-anchor="start" x="1796.5" y="-41.1" font-family="Verdana" font-size="8.00" fill="#8b0000">+ timeShift: float</text>
<text text-anchor="start" x="1796.5" y="-30.1" font-family="Verdana" font-size="8.00" fill="#8b0000">+ dataTimeWindow: float</text>
<text text-anchor="start" x="1796.5" y="-19.1" font-family="Verdana" font-size="8.00" fill="#8b0000">+ misfit: float &#160;[0..1]</text>
<text text-anchor="start" x="1796.5" y="-8.1" font-family="Verdana" font-size="8.00" fill="#8b0000">+ snr: float &#160;[0..1]</text>
</g>
<!-- MomentTensorStationContribution&#45;&gt;MomentTensorComponentContribution -->
<g id="edge25" class="edge"><title>MomentTensorStationContribution&#45;&gt;MomentTensorComponentContribution</title>
<path fill="none" stroke="#000000" d="M1877.5,-144.643C1877.5,-136.527 1877.5,-127.877 1877.5,-119.276"/>
<polygon fill="#000000" stroke="#000000" points="1881,-119.238 1877.5,-109.239 1874,-119.239 1881,-119.238"/>
</g>
<!-- Event -->
<g id="node19" class="node"><title>Event</title>
<path fill="#fcf2e3" stroke="none" stroke-width="0.5" d="M1937,-780.5C1937,-780.5 1676,-780.5 1676,-780.5 1670,-780.5 1664,-774.5 1664,-768.5 1664,-768.5 1664,-650.5 1664,-650.5 1664,-644.5 1670,-638.5 1676,-638.5 1676,-638.5 1937,-638.5 1937,-638.5 1943,-638.5 1949,-644.5 1949,-650.5 1949,-650.5 1949,-768.5 1949,-768.5 1949,-774.5 1943,-780.5 1937,-780.5"/>
<text text-anchor="start" x="1795" y="-768.1" font-family="Verdana" font-size="8.00">Event</text>
<text text-anchor="start" x="1674.5" y="-757.1" font-family="Verdana" font-size="8.00" fill="#8b0000">+ publicID: string</text>
<text text-anchor="start" x="1674.5" y="-746.1" font-family="Verdana" font-size="8.00" fill="#8b0000">+ preferredOriginID: string</text>
<text text-anchor="start" x="1674.5" y="-735.1" font-family="Verdana" font-size="8.00" fill="#8b0000">+ preferredMagnitudeID: string</text>
<text text-anchor="start" x="1674.5" y="-724.1" font-family="Verdana" font-size="8.00" fill="#8b0000">+ preferredFocalMechanismID: string</text>
<text text-anchor="start" x="1674.5" y="-713.1" font-family="Verdana" font-size="8.00" fill="#8b0000">+ type: EventType &#160;[0..1]</text>
<text text-anchor="start" x="1674.5" y="-702.1" font-family="Verdana" font-size="8.00" fill="#8b0000">+ typeCertainty: EventTypeCertainty &#160;[0..1]</text>
<text text-anchor="start" x="1674.5" y="-691.1" font-family="Verdana" font-size="8.00" fill="#8b0000">+ creationInfo: CreationInfo &#160;[0..1]</text>
<text text-anchor="start" x="1674.5" y="-680.1" font-family="Verdana" font-size="8.00" fill="#8b0000">+ eventDescription: EventDescription [0..*]</text>
<text text-anchor="start" x="1674.5" y="-669.1" font-family="Verdana" font-size="8.00" fill="#8b0000">+ comment: Comment [0..*]</text>
<text text-anchor="start" x="1674.5" y="-658.1" font-family="Verdana" font-size="8.00" fill="#8b0000">+ originReference: OriginReference [0..*]</text>
<text text-anchor="start" x="1674.5" y="-647.1" font-family="Verdana" font-size="8.00" fill="#8b0000">+ focalMechanismReference: FocalMechanismReference [0..*]</text>
</g>
<!-- Event&#45;&gt;Comment -->
<g id="edge8" class="edge"><title>Event&#45;&gt;Comment</title>
<path fill="none" stroke="#000000" d="M1663.72,-659.693C1535.56,-615.281 1365.96,-554.761 1355.5,-542 1277.38,-446.648 1372.1,-375.905 1312.5,-268 1305.5,-255.318 1295.61,-243.711 1284.94,-233.537"/>
<polygon fill="#000000" stroke="#000000" points="1287.2,-230.865 1277.45,-226.726 1282.49,-236.044 1287.2,-230.865"/>
</g>
<!-- EventDescription -->
<g id="node20" class="node"><title>EventDescription</title>
<path fill="#fcf2e3" stroke="none" stroke-width="0.5" d="M1866.5,-426.5C1866.5,-426.5 1746.5,-426.5 1746.5,-426.5 1740.5,-426.5 1734.5,-420.5 1734.5,-414.5 1734.5,-414.5 1734.5,-395.5 1734.5,-395.5 1734.5,-389.5 1740.5,-383.5 1746.5,-383.5 1746.5,-383.5 1866.5,-383.5 1866.5,-383.5 1872.5,-383.5 1878.5,-389.5 1878.5,-395.5 1878.5,-395.5 1878.5,-414.5 1878.5,-414.5 1878.5,-420.5 1872.5,-426.5 1866.5,-426.5"/>
<text text-anchor="start" x="1770.5" y="-413.6" font-family="Verdana" font-size="8.00">EventDescription</text>
<text text-anchor="start" x="1744.5" y="-402.6" font-family="Verdana" font-size="8.00" fill="#8b0000">+ text: string</text>
<text text-anchor="start" x="1744.5" y="-391.6" font-family="Verdana" font-size="8.00" fill="#8b0000">+ type: EventDescriptionType</text>
</g>
<!-- Event&#45;&gt;EventDescription -->
<g id="edge27" class="edge"><title>Event&#45;&gt;EventDescription</title>
<path fill="none" stroke="#000000" d="M1806.5,-638.34C1806.5,-574.705 1806.5,-483.881 1806.5,-436.86"/>
<polygon fill="#000000" stroke="#000000" points="1810,-436.703 1806.5,-426.703 1803,-436.703 1810,-436.703"/>
</g>
<!-- OriginReference -->
<g id="node21" class="node"><title>OriginReference</title>
<path fill="#fcf2e3" stroke="none" stroke-width="0.5" d="M1978,-423C1978,-423 1909,-423 1909,-423 1903,-423 1897,-417 1897,-411 1897,-411 1897,-399 1897,-399 1897,-393 1903,-387 1909,-387 1909,-387 1978,-387 1978,-387 1984,-387 1990,-393 1990,-399 1990,-399 1990,-411 1990,-411 1990,-417 1984,-423 1978,-423"/>
<text text-anchor="start" x="1909.5" y="-408.6" font-family="Verdana" font-size="8.00">OriginReference</text>
<text text-anchor="start" x="1907.5" y="-397.6" font-family="Verdana" font-size="8.00" fill="#8b0000">+ originID: string</text>
</g>
<!-- Event&#45;&gt;OriginReference -->
<g id="edge28" class="edge"><title>Event&#45;&gt;OriginReference</title>
<path fill="none" stroke="#000000" d="M1841.77,-638.473C1856.35,-608.899 1873.16,-573.969 1887.5,-542 1904.35,-504.444 1922.18,-460.259 1933.08,-432.685"/>
<polygon fill="#000000" stroke="#000000" points="1936.36,-433.908 1936.77,-423.321 1929.85,-431.344 1936.36,-433.908"/>
</g>
<!-- FocalMechanismReference -->
<g id="node22" class="node"><title>FocalMechanismReference</title>
<path fill="#fcf2e3" stroke="none" stroke-width="0.5" d="M2134.5,-423C2134.5,-423 2020.5,-423 2020.5,-423 2014.5,-423 2008.5,-417 2008.5,-411 2008.5,-411 2008.5,-399 2008.5,-399 2008.5,-393 2014.5,-387 2020.5,-387 2020.5,-387 2134.5,-387 2134.5,-387 2140.5,-387 2146.5,-393 2146.5,-399 2146.5,-399 2146.5,-411 2146.5,-411 2146.5,-417 2140.5,-423 2134.5,-423"/>
<text text-anchor="start" x="2021" y="-408.6" font-family="Verdana" font-size="8.00">FocalMechanismReference</text>
<text text-anchor="start" x="2018.5" y="-397.6" font-family="Verdana" font-size="8.00" fill="#8b0000">+ focalMechanismID: string</text>
</g>
<!-- Event&#45;&gt;FocalMechanismReference -->
<g id="edge29" class="edge"><title>Event&#45;&gt;FocalMechanismReference</title>
<path fill="none" stroke="#000000" d="M1899.71,-638.281C1933.14,-610.474 1969.67,-576.841 1998.5,-542 2027.15,-507.376 2051.62,-461.055 2065.44,-432.391"/>
<polygon fill="#000000" stroke="#000000" points="2068.75,-433.572 2069.87,-423.037 2062.42,-430.575 2068.75,-433.572"/>
</g>
<!-- EventParameters -->
<g id="node23" class="node"><title>EventParameters</title>
<path fill="#fcf2e3" stroke="none" stroke-width="0.5" d="M1022.5,-913C1022.5,-913 956.5,-913 956.5,-913 950.5,-913 944.5,-907 944.5,-901 944.5,-901 944.5,-889 944.5,-889 944.5,-883 950.5,-877 956.5,-877 956.5,-877 1022.5,-877 1022.5,-877 1028.5,-877 1034.5,-883 1034.5,-889 1034.5,-889 1034.5,-901 1034.5,-901 1034.5,-907 1028.5,-913 1022.5,-913"/>
<text text-anchor="middle" x="989.5" y="-893.1" font-family="Verdana" font-size="8.00">EventParameters</text>
</g>
<!-- EventParameters&#45;&gt;Pick -->
<g id="edge1" class="edge"><title>EventParameters&#45;&gt;Pick</title>
<path fill="none" stroke="#000000" d="M944.404,-887.044C898.564,-879.11 826.023,-864.158 766.5,-841 725.364,-824.996 682.572,-802.926 645.005,-781.486"/>
<polygon fill="#000000" stroke="#000000" points="646.487,-778.3 636.074,-776.345 642.995,-784.367 646.487,-778.3"/>
</g>
<!-- EventParameters&#45;&gt;Amplitude -->
<g id="edge10" class="edge"><title>EventParameters&#45;&gt;Amplitude</title>
<path fill="none" stroke="#000000" d="M999.849,-876.737C1008.52,-862.275 1021.69,-840.308 1035.64,-817.038"/>
<polygon fill="#000000" stroke="#000000" points="1038.66,-818.794 1040.8,-808.418 1032.66,-815.195 1038.66,-818.794"/>
</g>
<!-- EventParameters&#45;&gt;Reading -->
<g id="edge11" class="edge"><title>EventParameters&#45;&gt;Reading</title>
<path fill="none" stroke="#000000" d="M944.416,-892.087C827.663,-886.77 517.729,-870.247 419.5,-841 344.891,-818.785 266.74,-773.126 218.819,-742.153"/>
<polygon fill="#000000" stroke="#000000" points="220.518,-739.083 210.231,-736.55 216.693,-744.946 220.518,-739.083"/>
</g>
<!-- EventParameters&#45;&gt;Origin -->
<g id="edge14" class="edge"><title>EventParameters&#45;&gt;Origin</title>
<path fill="none" stroke="#000000" d="M979.151,-876.737C974.806,-869.488 969.33,-860.353 963.192,-850.114"/>
<polygon fill="#000000" stroke="#000000" points="966.034,-848.048 957.891,-841.27 960.031,-851.647 966.034,-848.048"/>
</g>
<!-- EventParameters&#45;&gt;FocalMechanism -->
<g id="edge20" class="edge"><title>EventParameters&#45;&gt;FocalMechanism</title>
<path fill="none" stroke="#000000" d="M1034.53,-891.012C1080.68,-886.197 1153.05,-873.648 1206.5,-841 1222.62,-831.155 1237.65,-818.25 1251.15,-804.387"/>
<polygon fill="#000000" stroke="#000000" points="1253.74,-806.735 1258.06,-797.062 1248.65,-801.929 1253.74,-806.735"/>
</g>
<!-- EventParameters&#45;&gt;Event -->
<g id="edge26" class="edge"><title>EventParameters&#45;&gt;Event</title>
<path fill="none" stroke="#000000" d="M1034.59,-891.805C1115.17,-887.174 1288.8,-873.977 1431.5,-841 1506.39,-823.692 1587.19,-796.704 1654.53,-771.751"/>
<polygon fill="#000000" stroke="#000000" points="1655.8,-775.016 1663.95,-768.245 1653.35,-768.456 1655.8,-775.016"/>
</g>
</g>
</svg>
