<?xml version="1.0" encoding="UTF-8" standalone="no"?>
<!DOCTYPE svg PUBLIC "-//W3C//DTD SVG 1.1//EN"
 "http://www.w3.org/Graphics/SVG/1.1/DTD/svg11.dtd">
<!-- Generated by graphviz version 2.38.0 (20140413.2041)
 -->
<!-- Title: G Pages: 1 -->
<svg width="576pt" height="281pt"
 viewBox="0.00 0.00 576.00 281.41" xmlns="http://www.w3.org/2000/svg" xmlns:xlink="http://www.w3.org/1999/xlink">
<g id="graph0" class="graph" transform="scale(0.248597 0.248597) rotate(0) translate(4 1128)">
<title>G</title>
<polygon fill="white" stroke="none" points="-4,4 -4,-1128 2313,-1128 2313,4 -4,4"/>
<!-- StationGroup -->
<g id="node1" class="node"><title>StationGroup</title>
<path fill="#fcf2e3" stroke="none" stroke-width="0.5" d="M194,-1024.5C194,-1024.5 12,-1024.5 12,-1024.5 6,-1024.5 0,-1018.5 0,-1012.5 0,-1012.5 0,-905.5 0,-905.5 0,-899.5 6,-893.5 12,-893.5 12,-893.5 194,-893.5 194,-893.5 200,-893.5 206,-899.5 206,-905.5 206,-905.5 206,-1012.5 206,-1012.5 206,-1018.5 200,-1024.5 194,-1024.5"/>
<text text-anchor="start" x="74.5" y="-1011.6" font-family="Verdana" font-size="8.00">StationGroup</text>
<text text-anchor="start" x="10" y="-1000.6" font-family="Verdana" font-size="8.00" fill="#8b0000">+ publicID: string</text>
<text text-anchor="start" x="10" y="-989.6" font-family="Verdana" font-size="8.00" fill="#8b0000">+ type: StationGroupType &#160;[0..1]</text>
<text text-anchor="start" x="10" y="-978.6" font-family="Verdana" font-size="8.00" fill="#8b0000">+ code: string</text>
<text text-anchor="start" x="10" y="-967.6" font-family="Verdana" font-size="8.00" fill="#8b0000">+ start: datetime &#160;[0..1]</text>
<text text-anchor="start" x="10" y="-956.6" font-family="Verdana" font-size="8.00" fill="#8b0000">+ end: datetime &#160;[0..1]</text>
<text text-anchor="start" x="10" y="-945.6" font-family="Verdana" font-size="8.00" fill="#8b0000">+ description: string</text>
<text text-anchor="start" x="10" y="-934.6" font-family="Verdana" font-size="8.00" fill="#8b0000">+ latitude: float &#160;[0..1]</text>
<text text-anchor="start" x="10" y="-923.6" font-family="Verdana" font-size="8.00" fill="#8b0000">+ longitude: float &#160;[0..1]</text>
<text text-anchor="start" x="10" y="-912.6" font-family="Verdana" font-size="8.00" fill="#8b0000">+ elevation: float &#160;[0..1]</text>
<text text-anchor="start" x="10" y="-901.6" font-family="Verdana" font-size="8.00" fill="#8b0000">+ stationReference: StationReference [0..*]</text>
</g>
<!-- StationReference -->
<g id="node2" class="node"><title>StationReference</title>
<path fill="#fcf2e3" stroke="none" stroke-width="0.5" d="M140.5,-733C140.5,-733 65.5,-733 65.5,-733 59.5,-733 53.5,-727 53.5,-721 53.5,-721 53.5,-709 53.5,-709 53.5,-703 59.5,-697 65.5,-697 65.5,-697 140.5,-697 140.5,-697 146.5,-697 152.5,-703 152.5,-709 152.5,-709 152.5,-721 152.5,-721 152.5,-727 146.5,-733 140.5,-733"/>
<text text-anchor="start" x="67" y="-718.6" font-family="Verdana" font-size="8.00">StationReference</text>
<text text-anchor="start" x="64" y="-707.6" font-family="Verdana" font-size="8.00" fill="#8b0000">+ stationID: string</text>
</g>
<!-- StationGroup&#45;&gt;StationReference -->
<g id="edge2" class="edge"><title>StationGroup&#45;&gt;StationReference</title>
<path fill="none" stroke="#000000" d="M103,-893.466C103,-844.486 103,-779.594 103,-743.397"/>
<polygon fill="#000000" stroke="#000000" points="106.5,-743.134 103,-733.134 99.5001,-743.134 106.5,-743.134"/>
</g>
<!-- AuxDevice -->
<g id="node3" class="node"><title>AuxDevice</title>
<path fill="#fcf2e3" stroke="none" stroke-width="0.5" d="M363.5,-1008C363.5,-1008 236.5,-1008 236.5,-1008 230.5,-1008 224.5,-1002 224.5,-996 224.5,-996 224.5,-922 224.5,-922 224.5,-916 230.5,-910 236.5,-910 236.5,-910 363.5,-910 363.5,-910 369.5,-910 375.5,-916 375.5,-922 375.5,-922 375.5,-996 375.5,-996 375.5,-1002 369.5,-1008 363.5,-1008"/>
<text text-anchor="start" x="279" y="-995.6" font-family="Verdana" font-size="8.00">AuxDevice</text>
<text text-anchor="start" x="235" y="-984.6" font-family="Verdana" font-size="8.00" fill="#8b0000">+ publicID: string</text>
<text text-anchor="start" x="235" y="-973.6" font-family="Verdana" font-size="8.00" fill="#8b0000">+ name: string</text>
<text text-anchor="start" x="235" y="-962.6" font-family="Verdana" font-size="8.00" fill="#8b0000">+ description: string</text>
<text text-anchor="start" x="235" y="-951.6" font-family="Verdana" font-size="8.00" fill="#8b0000">+ model: string</text>
<text text-anchor="start" x="235" y="-940.6" font-family="Verdana" font-size="8.00" fill="#8b0000">+ manufacturer: string</text>
<text text-anchor="start" x="235" y="-929.6" font-family="Verdana" font-size="8.00" fill="#8b0000">+ remark: Blob &#160;[0..1]</text>
<text text-anchor="start" x="235" y="-918.6" font-family="Verdana" font-size="8.00" fill="#8b0000">+ auxSource: AuxSource [0..*]</text>
</g>
<!-- AuxSource -->
<g id="node4" class="node"><title>AuxSource</title>
<path fill="#fcf2e3" stroke="none" stroke-width="0.5" d="M378,-764C378,-764 222,-764 222,-764 216,-764 210,-758 210,-752 210,-752 210,-678 210,-678 210,-672 216,-666 222,-666 222,-666 378,-666 378,-666 384,-666 390,-672 390,-678 390,-678 390,-752 390,-752 390,-758 384,-764 378,-764"/>
<text text-anchor="start" x="277" y="-751.6" font-family="Verdana" font-size="8.00">AuxSource</text>
<text text-anchor="start" x="220" y="-740.6" font-family="Verdana" font-size="8.00" fill="#8b0000">+ name: string</text>
<text text-anchor="start" x="220" y="-729.6" font-family="Verdana" font-size="8.00" fill="#8b0000">+ description: string</text>
<text text-anchor="start" x="220" y="-718.6" font-family="Verdana" font-size="8.00" fill="#8b0000">+ unit: string</text>
<text text-anchor="start" x="220" y="-707.6" font-family="Verdana" font-size="8.00" fill="#8b0000">+ conversion: string</text>
<text text-anchor="start" x="220" y="-696.6" font-family="Verdana" font-size="8.00" fill="#8b0000">+ sampleRateNumerator: int &#160;[0..1]</text>
<text text-anchor="start" x="220" y="-685.6" font-family="Verdana" font-size="8.00" fill="#8b0000">+ sampleRateDenominator: int &#160;[0..1]</text>
<text text-anchor="start" x="220" y="-674.6" font-family="Verdana" font-size="8.00" fill="#8b0000">+ remark: Blob &#160;[0..1]</text>
</g>
<!-- AuxDevice&#45;&gt;AuxSource -->
<g id="edge4" class="edge"><title>AuxDevice&#45;&gt;AuxSource</title>
<path fill="none" stroke="#000000" d="M300,-909.899C300,-870.888 300,-815.759 300,-774.251"/>
<polygon fill="#000000" stroke="#000000" points="303.5,-774.01 300,-764.01 296.5,-774.01 303.5,-774.01"/>
</g>
<!-- Sensor -->
<g id="node5" class="node"><title>Sensor</title>
<path fill="#fcf2e3" stroke="none" stroke-width="0.5" d="M594.5,-1035.5C594.5,-1035.5 405.5,-1035.5 405.5,-1035.5 399.5,-1035.5 393.5,-1029.5 393.5,-1023.5 393.5,-1023.5 393.5,-894.5 393.5,-894.5 393.5,-888.5 399.5,-882.5 405.5,-882.5 405.5,-882.5 594.5,-882.5 594.5,-882.5 600.5,-882.5 606.5,-888.5 606.5,-894.5 606.5,-894.5 606.5,-1023.5 606.5,-1023.5 606.5,-1029.5 600.5,-1035.5 594.5,-1035.5"/>
<text text-anchor="start" x="485" y="-1022.6" font-family="Verdana" font-size="8.00">Sensor</text>
<text text-anchor="start" x="404" y="-1011.6" font-family="Verdana" font-size="8.00" fill="#8b0000">+ publicID: string</text>
<text text-anchor="start" x="404" y="-1000.6" font-family="Verdana" font-size="8.00" fill="#8b0000">+ name: string</text>
<text text-anchor="start" x="404" y="-989.6" font-family="Verdana" font-size="8.00" fill="#8b0000">+ description: string</text>
<text text-anchor="start" x="404" y="-978.6" font-family="Verdana" font-size="8.00" fill="#8b0000">+ model: string</text>
<text text-anchor="start" x="404" y="-967.6" font-family="Verdana" font-size="8.00" fill="#8b0000">+ manufacturer: string</text>
<text text-anchor="start" x="404" y="-956.6" font-family="Verdana" font-size="8.00" fill="#8b0000">+ type: string</text>
<text text-anchor="start" x="404" y="-945.6" font-family="Verdana" font-size="8.00" fill="#8b0000">+ unit: string</text>
<text text-anchor="start" x="404" y="-934.6" font-family="Verdana" font-size="8.00" fill="#8b0000">+ lowFrequency: float &#160;[0..1]</text>
<text text-anchor="start" x="404" y="-923.6" font-family="Verdana" font-size="8.00" fill="#8b0000">+ highFrequency: float &#160;[0..1]</text>
<text text-anchor="start" x="404" y="-912.6" font-family="Verdana" font-size="8.00" fill="#8b0000">+ response: string</text>
<text text-anchor="start" x="404" y="-901.6" font-family="Verdana" font-size="8.00" fill="#8b0000">+ remark: Blob &#160;[0..1]</text>
<text text-anchor="start" x="404" y="-890.6" font-family="Verdana" font-size="8.00" fill="#8b0000">+ sensorCalibration: SensorCalibration [0..*]</text>
</g>
<!-- SensorCalibration -->
<g id="node6" class="node"><title>SensorCalibration</title>
<path fill="#fcf2e3" stroke="none" stroke-width="0.5" d="M560,-764C560,-764 440,-764 440,-764 434,-764 428,-758 428,-752 428,-752 428,-678 428,-678 428,-672 434,-666 440,-666 440,-666 560,-666 560,-666 566,-666 572,-672 572,-678 572,-678 572,-752 572,-752 572,-758 566,-764 560,-764"/>
<text text-anchor="start" x="461.5" y="-751.6" font-family="Verdana" font-size="8.00">SensorCalibration</text>
<text text-anchor="start" x="438" y="-740.6" font-family="Verdana" font-size="8.00" fill="#8b0000">+ serialNumber: string</text>
<text text-anchor="start" x="438" y="-729.6" font-family="Verdana" font-size="8.00" fill="#8b0000">+ channel: int</text>
<text text-anchor="start" x="438" y="-718.6" font-family="Verdana" font-size="8.00" fill="#8b0000">+ start: datetime</text>
<text text-anchor="start" x="438" y="-707.6" font-family="Verdana" font-size="8.00" fill="#8b0000">+ end: datetime &#160;[0..1]</text>
<text text-anchor="start" x="438" y="-696.6" font-family="Verdana" font-size="8.00" fill="#8b0000">+ gain: float &#160;[0..1]</text>
<text text-anchor="start" x="438" y="-685.6" font-family="Verdana" font-size="8.00" fill="#8b0000">+ gainFrequency: float &#160;[0..1]</text>
<text text-anchor="start" x="438" y="-674.6" font-family="Verdana" font-size="8.00" fill="#8b0000">+ remark: Blob &#160;[0..1]</text>
</g>
<!-- Sensor&#45;&gt;SensorCalibration -->
<g id="edge6" class="edge"><title>Sensor&#45;&gt;SensorCalibration</title>
<path fill="none" stroke="#000000" d="M500,-882.425C500,-847.636 500,-806.987 500,-774.571"/>
<polygon fill="#000000" stroke="#000000" points="503.5,-774.353 500,-764.353 496.5,-774.353 503.5,-774.353"/>
</g>
<!-- Datalogger -->
<g id="node7" class="node"><title>Datalogger</title>
<path fill="#fcf2e3" stroke="none" stroke-width="0.5" d="M857.5,-1052C857.5,-1052 636.5,-1052 636.5,-1052 630.5,-1052 624.5,-1046 624.5,-1040 624.5,-1040 624.5,-878 624.5,-878 624.5,-872 630.5,-866 636.5,-866 636.5,-866 857.5,-866 857.5,-866 863.5,-866 869.5,-872 869.5,-878 869.5,-878 869.5,-1040 869.5,-1040 869.5,-1046 863.5,-1052 857.5,-1052"/>
<text text-anchor="start" x="724" y="-1039.6" font-family="Verdana" font-size="8.00">Datalogger</text>
<text text-anchor="start" x="635" y="-1028.6" font-family="Verdana" font-size="8.00" fill="#8b0000">+ publicID: string</text>
<text text-anchor="start" x="635" y="-1017.6" font-family="Verdana" font-size="8.00" fill="#8b0000">+ name: string</text>
<text text-anchor="start" x="635" y="-1006.6" font-family="Verdana" font-size="8.00" fill="#8b0000">+ description: string</text>
<text text-anchor="start" x="635" y="-995.6" font-family="Verdana" font-size="8.00" fill="#8b0000">+ digitizerModel: string</text>
<text text-anchor="start" x="635" y="-984.6" font-family="Verdana" font-size="8.00" fill="#8b0000">+ digitizerManufacturer: string</text>
<text text-anchor="start" x="635" y="-973.6" font-family="Verdana" font-size="8.00" fill="#8b0000">+ recorderModel: string</text>
<text text-anchor="start" x="635" y="-962.6" font-family="Verdana" font-size="8.00" fill="#8b0000">+ recorderManufacturer: string</text>
<text text-anchor="start" x="635" y="-951.6" font-family="Verdana" font-size="8.00" fill="#8b0000">+ clockModel: string</text>
<text text-anchor="start" x="635" y="-940.6" font-family="Verdana" font-size="8.00" fill="#8b0000">+ clockManufacturer: string</text>
<text text-anchor="start" x="635" y="-929.6" font-family="Verdana" font-size="8.00" fill="#8b0000">+ clockType: string</text>
<text text-anchor="start" x="635" y="-918.6" font-family="Verdana" font-size="8.00" fill="#8b0000">+ gain: float &#160;[0..1]</text>
<text text-anchor="start" x="635" y="-907.6" font-family="Verdana" font-size="8.00" fill="#8b0000">+ maxClockDrift: float &#160;[0..1]</text>
<text text-anchor="start" x="635" y="-896.6" font-family="Verdana" font-size="8.00" fill="#8b0000">+ remark: Blob &#160;[0..1]</text>
<text text-anchor="start" x="635" y="-885.6" font-family="Verdana" font-size="8.00" fill="#8b0000">+ dataloggerCalibration: DataloggerCalibration [0..*]</text>
<text text-anchor="start" x="635" y="-874.6" font-family="Verdana" font-size="8.00" fill="#8b0000">+ decimation: Decimation [0..*]</text>
</g>
<!-- DataloggerCalibration -->
<g id="node8" class="node"><title>DataloggerCalibration</title>
<path fill="#fcf2e3" stroke="none" stroke-width="0.5" d="M764,-764C764,-764 644,-764 644,-764 638,-764 632,-758 632,-752 632,-752 632,-678 632,-678 632,-672 638,-666 644,-666 644,-666 764,-666 764,-666 770,-666 776,-672 776,-678 776,-678 776,-752 776,-752 776,-758 770,-764 764,-764"/>
<text text-anchor="start" x="657.5" y="-751.6" font-family="Verdana" font-size="8.00">DataloggerCalibration</text>
<text text-anchor="start" x="642" y="-740.6" font-family="Verdana" font-size="8.00" fill="#8b0000">+ serialNumber: string</text>
<text text-anchor="start" x="642" y="-729.6" font-family="Verdana" font-size="8.00" fill="#8b0000">+ channel: int</text>
<text text-anchor="start" x="642" y="-718.6" font-family="Verdana" font-size="8.00" fill="#8b0000">+ start: datetime</text>
<text text-anchor="start" x="642" y="-707.6" font-family="Verdana" font-size="8.00" fill="#8b0000">+ end: datetime &#160;[0..1]</text>
<text text-anchor="start" x="642" y="-696.6" font-family="Verdana" font-size="8.00" fill="#8b0000">+ gain: float &#160;[0..1]</text>
<text text-anchor="start" x="642" y="-685.6" font-family="Verdana" font-size="8.00" fill="#8b0000">+ gainFrequency: float &#160;[0..1]</text>
<text text-anchor="start" x="642" y="-674.6" font-family="Verdana" font-size="8.00" fill="#8b0000">+ remark: Blob &#160;[0..1]</text>
</g>
<!-- Datalogger&#45;&gt;DataloggerCalibration -->
<g id="edge8" class="edge"><title>Datalogger&#45;&gt;DataloggerCalibration</title>
<path fill="none" stroke="#000000" d="M730.621,-865.82C725.17,-835.144 719.253,-801.843 714.385,-774.445"/>
<polygon fill="#000000" stroke="#000000" points="717.769,-773.485 712.574,-764.251 710.877,-774.709 717.769,-773.485"/>
</g>
<!-- Decimation -->
<g id="node9" class="node"><title>Decimation</title>
<path fill="#fcf2e3" stroke="none" stroke-width="0.5" d="M949.5,-747.5C949.5,-747.5 806.5,-747.5 806.5,-747.5 800.5,-747.5 794.5,-741.5 794.5,-735.5 794.5,-735.5 794.5,-694.5 794.5,-694.5 794.5,-688.5 800.5,-682.5 806.5,-682.5 806.5,-682.5 949.5,-682.5 949.5,-682.5 955.5,-682.5 961.5,-688.5 961.5,-694.5 961.5,-694.5 961.5,-735.5 961.5,-735.5 961.5,-741.5 955.5,-747.5 949.5,-747.5"/>
<text text-anchor="start" x="854.5" y="-734.6" font-family="Verdana" font-size="8.00">Decimation</text>
<text text-anchor="start" x="805" y="-723.6" font-family="Verdana" font-size="8.00" fill="#8b0000">+ sampleRateNumerator: int</text>
<text text-anchor="start" x="805" y="-712.6" font-family="Verdana" font-size="8.00" fill="#8b0000">+ sampleRateDenominator: int</text>
<text text-anchor="start" x="805" y="-701.6" font-family="Verdana" font-size="8.00" fill="#8b0000">+ analogueFilterChain: Blob &#160;[0..1]</text>
<text text-anchor="start" x="805" y="-690.6" font-family="Verdana" font-size="8.00" fill="#8b0000">+ digitalFilterChain: Blob &#160;[0..1]</text>
</g>
<!-- Datalogger&#45;&gt;Decimation -->
<g id="edge9" class="edge"><title>Datalogger&#45;&gt;Decimation</title>
<path fill="none" stroke="#000000" d="M796.899,-865.82C817.344,-828.052 839.941,-786.307 856.079,-756.496"/>
<polygon fill="#000000" stroke="#000000" points="859.187,-758.105 860.87,-747.645 853.031,-754.773 859.187,-758.105"/>
</g>
<!-- ResponsePAZ -->
<g id="node10" class="node"><title>ResponsePAZ</title>
<path fill="#fcf2e3" stroke="none" stroke-width="0.5" d="M1058.5,-1052C1058.5,-1052 899.5,-1052 899.5,-1052 893.5,-1052 887.5,-1046 887.5,-1040 887.5,-1040 887.5,-878 887.5,-878 887.5,-872 893.5,-866 899.5,-866 899.5,-866 1058.5,-866 1058.5,-866 1064.5,-866 1070.5,-872 1070.5,-878 1070.5,-878 1070.5,-1040 1070.5,-1040 1070.5,-1046 1064.5,-1052 1058.5,-1052"/>
<text text-anchor="start" x="950" y="-1039.6" font-family="Verdana" font-size="8.00">ResponsePAZ</text>
<text text-anchor="start" x="898" y="-1028.6" font-family="Verdana" font-size="8.00" fill="#8b0000">+ publicID: string</text>
<text text-anchor="start" x="898" y="-1017.6" font-family="Verdana" font-size="8.00" fill="#8b0000">+ name: string</text>
<text text-anchor="start" x="898" y="-1006.6" font-family="Verdana" font-size="8.00" fill="#8b0000">+ type: string</text>
<text text-anchor="start" x="898" y="-995.6" font-family="Verdana" font-size="8.00" fill="#8b0000">+ gain: float &#160;[0..1]</text>
<text text-anchor="start" x="898" y="-984.6" font-family="Verdana" font-size="8.00" fill="#8b0000">+ gainFrequency: float &#160;[0..1]</text>
<text text-anchor="start" x="898" y="-973.6" font-family="Verdana" font-size="8.00" fill="#8b0000">+ normalizationFactor: float &#160;[0..1]</text>
<text text-anchor="start" x="898" y="-962.6" font-family="Verdana" font-size="8.00" fill="#8b0000">+ normalizationFrequency: float &#160;[0..1]</text>
<text text-anchor="start" x="898" y="-951.6" font-family="Verdana" font-size="8.00" fill="#8b0000">+ numberOfZeros: int &#160;[0..1]</text>
<text text-anchor="start" x="898" y="-940.6" font-family="Verdana" font-size="8.00" fill="#8b0000">+ numberOfPoles: int &#160;[0..1]</text>
<text text-anchor="start" x="898" y="-929.6" font-family="Verdana" font-size="8.00" fill="#8b0000">+ zeros: ComplexArray &#160;[0..1]</text>
<text text-anchor="start" x="898" y="-918.6" font-family="Verdana" font-size="8.00" fill="#8b0000">+ poles: ComplexArray &#160;[0..1]</text>
<text text-anchor="start" x="898" y="-907.6" font-family="Verdana" font-size="8.00" fill="#8b0000">+ remark: Blob &#160;[0..1]</text>
<text text-anchor="start" x="898" y="-896.6" font-family="Verdana" font-size="8.00" fill="#8b0000">+ decimationFactor: int &#160;[0..1]</text>
<text text-anchor="start" x="898" y="-885.6" font-family="Verdana" font-size="8.00" fill="#8b0000">+ delay: float &#160;[0..1]</text>
<text text-anchor="start" x="898" y="-874.6" font-family="Verdana" font-size="8.00" fill="#8b0000">+ correction: float &#160;[0..1]</text>
</g>
<!-- ResponseFIR -->
<g id="node11" class="node"><title>ResponseFIR</title>
<path fill="#fcf2e3" stroke="none" stroke-width="0.5" d="M1245,-1030C1245,-1030 1101,-1030 1101,-1030 1095,-1030 1089,-1024 1089,-1018 1089,-1018 1089,-900 1089,-900 1089,-894 1095,-888 1101,-888 1101,-888 1245,-888 1245,-888 1251,-888 1257,-894 1257,-900 1257,-900 1257,-1018 1257,-1018 1257,-1024 1251,-1030 1245,-1030"/>
<text text-anchor="start" x="1145.5" y="-1017.6" font-family="Verdana" font-size="8.00">ResponseFIR</text>
<text text-anchor="start" x="1099" y="-1006.6" font-family="Verdana" font-size="8.00" fill="#8b0000">+ publicID: string</text>
<text text-anchor="start" x="1099" y="-995.6" font-family="Verdana" font-size="8.00" fill="#8b0000">+ name: string</text>
<text text-anchor="start" x="1099" y="-984.6" font-family="Verdana" font-size="8.00" fill="#8b0000">+ gain: float &#160;[0..1]</text>
<text text-anchor="start" x="1099" y="-973.6" font-family="Verdana" font-size="8.00" fill="#8b0000">+ gainFrequency: float &#160;[0..1]</text>
<text text-anchor="start" x="1099" y="-962.6" font-family="Verdana" font-size="8.00" fill="#8b0000">+ decimationFactor: int &#160;[0..1]</text>
<text text-anchor="start" x="1099" y="-951.6" font-family="Verdana" font-size="8.00" fill="#8b0000">+ delay: float &#160;[0..1]</text>
<text text-anchor="start" x="1099" y="-940.6" font-family="Verdana" font-size="8.00" fill="#8b0000">+ correction: float &#160;[0..1]</text>
<text text-anchor="start" x="1099" y="-929.6" font-family="Verdana" font-size="8.00" fill="#8b0000">+ numberOfCoefficients: int &#160;[0..1]</text>
<text text-anchor="start" x="1099" y="-918.6" font-family="Verdana" font-size="8.00" fill="#8b0000">+ symmetry: string</text>
<text text-anchor="start" x="1099" y="-907.6" font-family="Verdana" font-size="8.00" fill="#8b0000">+ coefficients: RealArray &#160;[0..1]</text>
<text text-anchor="start" x="1099" y="-896.6" font-family="Verdana" font-size="8.00" fill="#8b0000">+ remark: Blob &#160;[0..1]</text>
</g>
<!-- ResponseIIR -->
<g id="node12" class="node"><title>ResponseIIR</title>
<path fill="#fcf2e3" stroke="none" stroke-width="0.5" d="M1441,-1041C1441,-1041 1287,-1041 1287,-1041 1281,-1041 1275,-1035 1275,-1029 1275,-1029 1275,-889 1275,-889 1275,-883 1281,-877 1287,-877 1287,-877 1441,-877 1441,-877 1447,-877 1453,-883 1453,-889 1453,-889 1453,-1029 1453,-1029 1453,-1035 1447,-1041 1441,-1041"/>
<text text-anchor="start" x="1338" y="-1028.6" font-family="Verdana" font-size="8.00">ResponseIIR</text>
<text text-anchor="start" x="1285" y="-1017.6" font-family="Verdana" font-size="8.00" fill="#8b0000">+ publicID: string</text>
<text text-anchor="start" x="1285" y="-1006.6" font-family="Verdana" font-size="8.00" fill="#8b0000">+ name: string</text>
<text text-anchor="start" x="1285" y="-995.6" font-family="Verdana" font-size="8.00" fill="#8b0000">+ type: string</text>
<text text-anchor="start" x="1285" y="-984.6" font-family="Verdana" font-size="8.00" fill="#8b0000">+ gain: float &#160;[0..1]</text>
<text text-anchor="start" x="1285" y="-973.6" font-family="Verdana" font-size="8.00" fill="#8b0000">+ gainFrequency: float &#160;[0..1]</text>
<text text-anchor="start" x="1285" y="-962.6" font-family="Verdana" font-size="8.00" fill="#8b0000">+ decimationFactor: int &#160;[0..1]</text>
<text text-anchor="start" x="1285" y="-951.6" font-family="Verdana" font-size="8.00" fill="#8b0000">+ delay: float &#160;[0..1]</text>
<text text-anchor="start" x="1285" y="-940.6" font-family="Verdana" font-size="8.00" fill="#8b0000">+ correction: float &#160;[0..1]</text>
<text text-anchor="start" x="1285" y="-929.6" font-family="Verdana" font-size="8.00" fill="#8b0000">+ numberOfNumerators: int &#160;[0..1]</text>
<text text-anchor="start" x="1285" y="-918.6" font-family="Verdana" font-size="8.00" fill="#8b0000">+ numberOfDenominators: int &#160;[0..1]</text>
<text text-anchor="start" x="1285" y="-907.6" font-family="Verdana" font-size="8.00" fill="#8b0000">+ numerators: RealArray &#160;[0..1]</text>
<text text-anchor="start" x="1285" y="-896.6" font-family="Verdana" font-size="8.00" fill="#8b0000">+ denominators: RealArray &#160;[0..1]</text>
<text text-anchor="start" x="1285" y="-885.6" font-family="Verdana" font-size="8.00" fill="#8b0000">+ remark: Blob &#160;[0..1]</text>
</g>
<!-- ResponsePolynomial -->
<g id="node13" class="node"><title>ResponsePolynomial</title>
<path fill="#fcf2e3" stroke="none" stroke-width="0.5" d="M1656.5,-1035.5C1656.5,-1035.5 1483.5,-1035.5 1483.5,-1035.5 1477.5,-1035.5 1471.5,-1029.5 1471.5,-1023.5 1471.5,-1023.5 1471.5,-894.5 1471.5,-894.5 1471.5,-888.5 1477.5,-882.5 1483.5,-882.5 1483.5,-882.5 1656.5,-882.5 1656.5,-882.5 1662.5,-882.5 1668.5,-888.5 1668.5,-894.5 1668.5,-894.5 1668.5,-1023.5 1668.5,-1023.5 1668.5,-1029.5 1662.5,-1035.5 1656.5,-1035.5"/>
<text text-anchor="start" x="1526.5" y="-1022.6" font-family="Verdana" font-size="8.00">ResponsePolynomial</text>
<text text-anchor="start" x="1482" y="-1011.6" font-family="Verdana" font-size="8.00" fill="#8b0000">+ publicID: string</text>
<text text-anchor="start" x="1482" y="-1000.6" font-family="Verdana" font-size="8.00" fill="#8b0000">+ name: string</text>
<text text-anchor="start" x="1482" y="-989.6" font-family="Verdana" font-size="8.00" fill="#8b0000">+ gain: float &#160;[0..1]</text>
<text text-anchor="start" x="1482" y="-978.6" font-family="Verdana" font-size="8.00" fill="#8b0000">+ gainFrequency: float &#160;[0..1]</text>
<text text-anchor="start" x="1482" y="-967.6" font-family="Verdana" font-size="8.00" fill="#8b0000">+ frequencyUnit: string</text>
<text text-anchor="start" x="1482" y="-956.6" font-family="Verdana" font-size="8.00" fill="#8b0000">+ approximationType: string</text>
<text text-anchor="start" x="1482" y="-945.6" font-family="Verdana" font-size="8.00" fill="#8b0000">+ approximationLowerBound: float &#160;[0..1]</text>
<text text-anchor="start" x="1482" y="-934.6" font-family="Verdana" font-size="8.00" fill="#8b0000">+ approximationUpperBound: float &#160;[0..1]</text>
<text text-anchor="start" x="1482" y="-923.6" font-family="Verdana" font-size="8.00" fill="#8b0000">+ approximationError: float &#160;[0..1]</text>
<text text-anchor="start" x="1482" y="-912.6" font-family="Verdana" font-size="8.00" fill="#8b0000">+ numberOfCoefficients: int &#160;[0..1]</text>
<text text-anchor="start" x="1482" y="-901.6" font-family="Verdana" font-size="8.00" fill="#8b0000">+ coefficients: RealArray &#160;[0..1]</text>
<text text-anchor="start" x="1482" y="-890.6" font-family="Verdana" font-size="8.00" fill="#8b0000">+ remark: Blob &#160;[0..1]</text>
</g>
<!-- ResponseFAP -->
<g id="node14" class="node"><title>ResponseFAP</title>
<path fill="#fcf2e3" stroke="none" stroke-width="0.5" d="M1819.5,-1008C1819.5,-1008 1698.5,-1008 1698.5,-1008 1692.5,-1008 1686.5,-1002 1686.5,-996 1686.5,-996 1686.5,-922 1686.5,-922 1686.5,-916 1692.5,-910 1698.5,-910 1698.5,-910 1819.5,-910 1819.5,-910 1825.5,-910 1831.5,-916 1831.5,-922 1831.5,-922 1831.5,-996 1831.5,-996 1831.5,-1002 1825.5,-1008 1819.5,-1008"/>
<text text-anchor="start" x="1731" y="-995.6" font-family="Verdana" font-size="8.00">ResponseFAP</text>
<text text-anchor="start" x="1697" y="-984.6" font-family="Verdana" font-size="8.00" fill="#8b0000">+ publicID: string</text>
<text text-anchor="start" x="1697" y="-973.6" font-family="Verdana" font-size="8.00" fill="#8b0000">+ name: string</text>
<text text-anchor="start" x="1697" y="-962.6" font-family="Verdana" font-size="8.00" fill="#8b0000">+ gain: float &#160;[0..1]</text>
<text text-anchor="start" x="1697" y="-951.6" font-family="Verdana" font-size="8.00" fill="#8b0000">+ gainFrequency: float &#160;[0..1]</text>
<text text-anchor="start" x="1697" y="-940.6" font-family="Verdana" font-size="8.00" fill="#8b0000">+ numberOfTuples: int &#160;[0..1]</text>
<text text-anchor="start" x="1697" y="-929.6" font-family="Verdana" font-size="8.00" fill="#8b0000">+ tuples: RealArray &#160;[0..1]</text>
<text text-anchor="start" x="1697" y="-918.6" font-family="Verdana" font-size="8.00" fill="#8b0000">+ remark: Blob &#160;[0..1]</text>
</g>
<!-- Network -->
<g id="node15" class="node"><title>Network</title>
<path fill="#fcf2e3" stroke="none" stroke-width="0.5" d="M1980,-1052C1980,-1052 1862,-1052 1862,-1052 1856,-1052 1850,-1046 1850,-1040 1850,-1040 1850,-878 1850,-878 1850,-872 1856,-866 1862,-866 1862,-866 1980,-866 1980,-866 1986,-866 1992,-872 1992,-878 1992,-878 1992,-1040 1992,-1040 1992,-1046 1986,-1052 1980,-1052"/>
<text text-anchor="start" x="1903.5" y="-1039.6" font-family="Verdana" font-size="8.00">Network</text>
<text text-anchor="start" x="1860" y="-1028.6" font-family="Verdana" font-size="8.00" fill="#8b0000">+ publicID: string</text>
<text text-anchor="start" x="1860" y="-1017.6" font-family="Verdana" font-size="8.00" fill="#8b0000">+ code: string</text>
<text text-anchor="start" x="1860" y="-1006.6" font-family="Verdana" font-size="8.00" fill="#8b0000">+ start: datetime</text>
<text text-anchor="start" x="1860" y="-995.6" font-family="Verdana" font-size="8.00" fill="#8b0000">+ end: datetime &#160;[0..1]</text>
<text text-anchor="start" x="1860" y="-984.6" font-family="Verdana" font-size="8.00" fill="#8b0000">+ description: string</text>
<text text-anchor="start" x="1860" y="-973.6" font-family="Verdana" font-size="8.00" fill="#8b0000">+ institutions: string</text>
<text text-anchor="start" x="1860" y="-962.6" font-family="Verdana" font-size="8.00" fill="#8b0000">+ region: string</text>
<text text-anchor="start" x="1860" y="-951.6" font-family="Verdana" font-size="8.00" fill="#8b0000">+ type: string</text>
<text text-anchor="start" x="1860" y="-940.6" font-family="Verdana" font-size="8.00" fill="#8b0000">+ netClass: string</text>
<text text-anchor="start" x="1860" y="-929.6" font-family="Verdana" font-size="8.00" fill="#8b0000">+ archive: string</text>
<text text-anchor="start" x="1860" y="-918.6" font-family="Verdana" font-size="8.00" fill="#8b0000">+ restricted: boolean &#160;[0..1]</text>
<text text-anchor="start" x="1860" y="-907.6" font-family="Verdana" font-size="8.00" fill="#8b0000">+ shared: boolean &#160;[0..1]</text>
<text text-anchor="start" x="1860" y="-896.6" font-family="Verdana" font-size="8.00" fill="#8b0000">+ remark: Blob &#160;[0..1]</text>
<text text-anchor="start" x="1860" y="-885.6" font-family="Verdana" font-size="8.00" fill="#8b0000">+ comment: Comment [0..*]</text>
<text text-anchor="start" x="1860" y="-874.6" font-family="Verdana" font-size="8.00" fill="#8b0000">+ station: Station [0..*]</text>
</g>
<!-- Comment -->
<g id="node16" class="node"><title>Comment</title>
<path fill="#fcf2e3" stroke="none" stroke-width="0.5" d="M1987.5,-76C1987.5,-76 1844.5,-76 1844.5,-76 1838.5,-76 1832.5,-70 1832.5,-64 1832.5,-64 1832.5,-12 1832.5,-12 1832.5,-6 1838.5,-0 1844.5,-0 1844.5,-0 1987.5,-0 1987.5,-0 1993.5,-0 1999.5,-6 1999.5,-12 1999.5,-12 1999.5,-64 1999.5,-64 1999.5,-70 1993.5,-76 1987.5,-76"/>
<text text-anchor="start" x="1895.5" y="-63.6" font-family="Verdana" font-size="8.00">Comment</text>
<text text-anchor="start" x="1843" y="-52.6" font-family="Verdana" font-size="8.00" fill="#8b0000">+ text: string</text>
<text text-anchor="start" x="1843" y="-41.6" font-family="Verdana" font-size="8.00" fill="#8b0000">+ id: string</text>
<text text-anchor="start" x="1843" y="-30.6" font-family="Verdana" font-size="8.00" fill="#8b0000">+ start: datetime &#160;[0..1]</text>
<text text-anchor="start" x="1843" y="-19.6" font-family="Verdana" font-size="8.00" fill="#8b0000">+ end: datetime &#160;[0..1]</text>
<text text-anchor="start" x="1843" y="-8.6" font-family="Verdana" font-size="8.00" fill="#8b0000">+ creationInfo: CreationInfo &#160;[0..1]</text>
</g>
<!-- Network&#45;&gt;Comment -->
<g id="edge19" class="edge"><title>Network&#45;&gt;Comment</title>
<path fill="none" stroke="#000000" d="M1886.15,-865.915C1882.8,-853.977 1879.93,-841.799 1878,-830 1856.52,-698.628 1890.86,-192.771 1901,-112 1902.05,-103.603 1903.55,-94.7321 1905.19,-86.1768"/>
<polygon fill="#000000" stroke="#000000" points="1908.63,-86.8194 1907.17,-76.3262 1901.77,-85.4423 1908.63,-86.8194"/>
</g>
<!-- Station -->
<g id="node17" class="node"><title>Station</title>
<path fill="#fcf2e3" stroke="none" stroke-width="0.5" d="M2067,-830C2067,-830 1899,-830 1899,-830 1893,-830 1887,-824 1887,-818 1887,-818 1887,-612 1887,-612 1887,-606 1893,-600 1899,-600 1899,-600 2067,-600 2067,-600 2073,-600 2079,-606 2079,-612 2079,-612 2079,-818 2079,-818 2079,-824 2073,-830 2067,-830"/>
<text text-anchor="start" x="1967.5" y="-817.6" font-family="Verdana" font-size="8.00">Station</text>
<text text-anchor="start" x="1897" y="-806.6" font-family="Verdana" font-size="8.00" fill="#8b0000">+ publicID: string</text>
<text text-anchor="start" x="1897" y="-795.6" font-family="Verdana" font-size="8.00" fill="#8b0000">+ code: string</text>
<text text-anchor="start" x="1897" y="-784.6" font-family="Verdana" font-size="8.00" fill="#8b0000">+ start: datetime</text>
<text text-anchor="start" x="1897" y="-773.6" font-family="Verdana" font-size="8.00" fill="#8b0000">+ end: datetime &#160;[0..1]</text>
<text text-anchor="start" x="1897" y="-762.6" font-family="Verdana" font-size="8.00" fill="#8b0000">+ description: string</text>
<text text-anchor="start" x="1897" y="-751.6" font-family="Verdana" font-size="8.00" fill="#8b0000">+ latitude: float &#160;[0..1]</text>
<text text-anchor="start" x="1897" y="-740.6" font-family="Verdana" font-size="8.00" fill="#8b0000">+ longitude: float &#160;[0..1]</text>
<text text-anchor="start" x="1897" y="-729.6" font-family="Verdana" font-size="8.00" fill="#8b0000">+ elevation: float &#160;[0..1]</text>
<text text-anchor="start" x="1897" y="-718.6" font-family="Verdana" font-size="8.00" fill="#8b0000">+ place: string</text>
<text text-anchor="start" x="1897" y="-707.6" font-family="Verdana" font-size="8.00" fill="#8b0000">+ country: string</text>
<text text-anchor="start" x="1897" y="-696.6" font-family="Verdana" font-size="8.00" fill="#8b0000">+ affiliation: string</text>
<text text-anchor="start" x="1897" y="-685.6" font-family="Verdana" font-size="8.00" fill="#8b0000">+ type: string</text>
<text text-anchor="start" x="1897" y="-674.6" font-family="Verdana" font-size="8.00" fill="#8b0000">+ archive: string</text>
<text text-anchor="start" x="1897" y="-663.6" font-family="Verdana" font-size="8.00" fill="#8b0000">+ archiveNetworkCode: string</text>
<text text-anchor="start" x="1897" y="-652.6" font-family="Verdana" font-size="8.00" fill="#8b0000">+ restricted: boolean &#160;[0..1]</text>
<text text-anchor="start" x="1897" y="-641.6" font-family="Verdana" font-size="8.00" fill="#8b0000">+ shared: boolean &#160;[0..1]</text>
<text text-anchor="start" x="1897" y="-630.6" font-family="Verdana" font-size="8.00" fill="#8b0000">+ remark: Blob &#160;[0..1]</text>
<text text-anchor="start" x="1897" y="-619.6" font-family="Verdana" font-size="8.00" fill="#8b0000">+ comment: Comment [0..*]</text>
<text text-anchor="start" x="1897" y="-608.6" font-family="Verdana" font-size="8.00" fill="#8b0000">+ sensorLocation: SensorLocation [0..*]</text>
</g>
<!-- Network&#45;&gt;Station -->
<g id="edge20" class="edge"><title>Network&#45;&gt;Station</title>
<path fill="none" stroke="#000000" d="M1944.62,-865.82C1946.78,-857.377 1948.99,-848.735 1951.21,-840.072"/>
<polygon fill="#000000" stroke="#000000" points="1954.63,-840.847 1953.72,-830.291 1947.85,-839.11 1954.63,-840.847"/>
</g>
<!-- Station&#45;&gt;Comment -->
<g id="edge18" class="edge"><title>Station&#45;&gt;Comment</title>
<path fill="none" stroke="#000000" d="M1942.5,-599.986C1938.97,-587.925 1935.71,-575.77 1933,-564 1893.34,-391.792 1903.98,-179.474 1911.5,-86.4428"/>
<polygon fill="#000000" stroke="#000000" points="1915,-86.4836 1912.35,-76.2273 1908.03,-85.9018 1915,-86.4836"/>
</g>
<!-- SensorLocation -->
<g id="node18" class="node"><title>SensorLocation</title>
<path fill="#fcf2e3" stroke="none" stroke-width="0.5" d="M2084,-564C2084,-564 1954,-564 1954,-564 1948,-564 1942,-558 1942,-552 1942,-552 1942,-445 1942,-445 1942,-439 1948,-433 1954,-433 1954,-433 2084,-433 2084,-433 2090,-433 2096,-439 2096,-445 2096,-445 2096,-552 2096,-552 2096,-558 2090,-564 2084,-564"/>
<text text-anchor="start" x="1985.5" y="-551.1" font-family="Verdana" font-size="8.00">SensorLocation</text>
<text text-anchor="start" x="1952" y="-540.1" font-family="Verdana" font-size="8.00" fill="#8b0000">+ publicID: string</text>
<text text-anchor="start" x="1952" y="-529.1" font-family="Verdana" font-size="8.00" fill="#8b0000">+ code: string</text>
<text text-anchor="start" x="1952" y="-518.1" font-family="Verdana" font-size="8.00" fill="#8b0000">+ start: datetime</text>
<text text-anchor="start" x="1952" y="-507.1" font-family="Verdana" font-size="8.00" fill="#8b0000">+ end: datetime &#160;[0..1]</text>
<text text-anchor="start" x="1952" y="-496.1" font-family="Verdana" font-size="8.00" fill="#8b0000">+ latitude: float &#160;[0..1]</text>
<text text-anchor="start" x="1952" y="-485.1" font-family="Verdana" font-size="8.00" fill="#8b0000">+ longitude: float &#160;[0..1]</text>
<text text-anchor="start" x="1952" y="-474.1" font-family="Verdana" font-size="8.00" fill="#8b0000">+ elevation: float &#160;[0..1]</text>
<text text-anchor="start" x="1952" y="-463.1" font-family="Verdana" font-size="8.00" fill="#8b0000">+ comment: Comment [0..*]</text>
<text text-anchor="start" x="1952" y="-452.1" font-family="Verdana" font-size="8.00" fill="#8b0000">+ auxStream: AuxStream [0..*]</text>
<text text-anchor="start" x="1952" y="-441.1" font-family="Verdana" font-size="8.00" fill="#8b0000">+ stream: Stream [0..*]</text>
</g>
<!-- Station&#45;&gt;SensorLocation -->
<g id="edge21" class="edge"><title>Station&#45;&gt;SensorLocation</title>
<path fill="none" stroke="#000000" d="M2002.16,-599.842C2003.62,-591.164 2005.06,-582.547 2006.46,-574.218"/>
<polygon fill="#000000" stroke="#000000" points="2009.93,-574.66 2008.14,-564.218 2003.03,-573.501 2009.93,-574.66"/>
</g>
<!-- SensorLocation&#45;&gt;Comment -->
<g id="edge17" class="edge"><title>SensorLocation&#45;&gt;Comment</title>
<path fill="none" stroke="#000000" d="M1970.99,-432.755C1964.32,-421.303 1958.3,-409.146 1954,-397 1916.39,-290.648 1912.92,-156.312 1914.15,-86.3127"/>
<polygon fill="#000000" stroke="#000000" points="1917.66,-86.1272 1914.37,-76.0537 1910.66,-85.9755 1917.66,-86.1272"/>
</g>
<!-- AuxStream -->
<g id="node19" class="node"><title>AuxStream</title>
<path fill="#fcf2e3" stroke="none" stroke-width="0.5" d="M2098.5,-320C2098.5,-320 1975.5,-320 1975.5,-320 1969.5,-320 1963.5,-314 1963.5,-308 1963.5,-308 1963.5,-201 1963.5,-201 1963.5,-195 1969.5,-189 1975.5,-189 1975.5,-189 2098.5,-189 2098.5,-189 2104.5,-189 2110.5,-195 2110.5,-201 2110.5,-201 2110.5,-308 2110.5,-308 2110.5,-314 2104.5,-320 2098.5,-320"/>
<text text-anchor="start" x="2014" y="-307.1" font-family="Verdana" font-size="8.00">AuxStream</text>
<text text-anchor="start" x="1974" y="-296.1" font-family="Verdana" font-size="8.00" fill="#8b0000">+ code: string</text>
<text text-anchor="start" x="1974" y="-285.1" font-family="Verdana" font-size="8.00" fill="#8b0000">+ start: datetime</text>
<text text-anchor="start" x="1974" y="-274.1" font-family="Verdana" font-size="8.00" fill="#8b0000">+ end: datetime &#160;[0..1]</text>
<text text-anchor="start" x="1974" y="-263.1" font-family="Verdana" font-size="8.00" fill="#8b0000">+ device: string</text>
<text text-anchor="start" x="1974" y="-252.1" font-family="Verdana" font-size="8.00" fill="#8b0000">+ deviceSerialNumber: string</text>
<text text-anchor="start" x="1974" y="-241.1" font-family="Verdana" font-size="8.00" fill="#8b0000">+ source: string</text>
<text text-anchor="start" x="1974" y="-230.1" font-family="Verdana" font-size="8.00" fill="#8b0000">+ format: string</text>
<text text-anchor="start" x="1974" y="-219.1" font-family="Verdana" font-size="8.00" fill="#8b0000">+ flags: string</text>
<text text-anchor="start" x="1974" y="-208.1" font-family="Verdana" font-size="8.00" fill="#8b0000">+ restricted: boolean &#160;[0..1]</text>
<text text-anchor="start" x="1974" y="-197.1" font-family="Verdana" font-size="8.00" fill="#8b0000">+ shared: boolean &#160;[0..1]</text>
</g>
<!-- SensorLocation&#45;&gt;AuxStream -->
<g id="edge22" class="edge"><title>SensorLocation&#45;&gt;AuxStream</title>
<path fill="none" stroke="#000000" d="M2023.8,-432.966C2026.15,-401.371 2028.99,-363.153 2031.44,-330.288"/>
<polygon fill="#000000" stroke="#000000" points="2034.93,-330.506 2032.18,-320.274 2027.95,-329.987 2034.93,-330.506"/>
</g>
<!-- Stream -->
<g id="node20" class="node"><title>Stream</title>
<path fill="#fcf2e3" stroke="none" stroke-width="0.5" d="M2297,-397C2297,-397 2141,-397 2141,-397 2135,-397 2129,-391 2129,-385 2129,-385 2129,-124 2129,-124 2129,-118 2135,-112 2141,-112 2141,-112 2297,-112 2297,-112 2303,-112 2309,-118 2309,-124 2309,-124 2309,-385 2309,-385 2309,-391 2303,-397 2297,-397"/>
<text text-anchor="start" x="2203" y="-384.1" font-family="Verdana" font-size="8.00">Stream</text>
<text text-anchor="start" x="2139" y="-373.1" font-family="Verdana" font-size="8.00" fill="#8b0000">+ publicID: string</text>
<text text-anchor="start" x="2139" y="-362.1" font-family="Verdana" font-size="8.00" fill="#8b0000">+ code: string</text>
<text text-anchor="start" x="2139" y="-351.1" font-family="Verdana" font-size="8.00" fill="#8b0000">+ start: datetime</text>
<text text-anchor="start" x="2139" y="-340.1" font-family="Verdana" font-size="8.00" fill="#8b0000">+ end: datetime &#160;[0..1]</text>
<text text-anchor="start" x="2139" y="-329.1" font-family="Verdana" font-size="8.00" fill="#8b0000">+ datalogger: string</text>
<text text-anchor="start" x="2139" y="-318.1" font-family="Verdana" font-size="8.00" fill="#8b0000">+ dataloggerSerialNumber: string</text>
<text text-anchor="start" x="2139" y="-307.1" font-family="Verdana" font-size="8.00" fill="#8b0000">+ dataloggerChannel: int &#160;[0..1]</text>
<text text-anchor="start" x="2139" y="-296.1" font-family="Verdana" font-size="8.00" fill="#8b0000">+ sensor: string</text>
<text text-anchor="start" x="2139" y="-285.1" font-family="Verdana" font-size="8.00" fill="#8b0000">+ sensorSerialNumber: string</text>
<text text-anchor="start" x="2139" y="-274.1" font-family="Verdana" font-size="8.00" fill="#8b0000">+ sensorChannel: int &#160;[0..1]</text>
<text text-anchor="start" x="2139" y="-263.1" font-family="Verdana" font-size="8.00" fill="#8b0000">+ clockSerialNumber: string</text>
<text text-anchor="start" x="2139" y="-252.1" font-family="Verdana" font-size="8.00" fill="#8b0000">+ sampleRateNumerator: int &#160;[0..1]</text>
<text text-anchor="start" x="2139" y="-241.1" font-family="Verdana" font-size="8.00" fill="#8b0000">+ sampleRateDenominator: int &#160;[0..1]</text>
<text text-anchor="start" x="2139" y="-230.1" font-family="Verdana" font-size="8.00" fill="#8b0000">+ depth: float &#160;[0..1]</text>
<text text-anchor="start" x="2139" y="-219.1" font-family="Verdana" font-size="8.00" fill="#8b0000">+ azimuth: float &#160;[0..1]</text>
<text text-anchor="start" x="2139" y="-208.1" font-family="Verdana" font-size="8.00" fill="#8b0000">+ dip: float &#160;[0..1]</text>
<text text-anchor="start" x="2139" y="-197.1" font-family="Verdana" font-size="8.00" fill="#8b0000">+ gain: float &#160;[0..1]</text>
<text text-anchor="start" x="2139" y="-186.1" font-family="Verdana" font-size="8.00" fill="#8b0000">+ gainFrequency: float &#160;[0..1]</text>
<text text-anchor="start" x="2139" y="-175.1" font-family="Verdana" font-size="8.00" fill="#8b0000">+ gainUnit: string</text>
<text text-anchor="start" x="2139" y="-164.1" font-family="Verdana" font-size="8.00" fill="#8b0000">+ format: string</text>
<text text-anchor="start" x="2139" y="-153.1" font-family="Verdana" font-size="8.00" fill="#8b0000">+ flags: string</text>
<text text-anchor="start" x="2139" y="-142.1" font-family="Verdana" font-size="8.00" fill="#8b0000">+ restricted: boolean &#160;[0..1]</text>
<text text-anchor="start" x="2139" y="-131.1" font-family="Verdana" font-size="8.00" fill="#8b0000">+ shared: boolean &#160;[0..1]</text>
<text text-anchor="start" x="2139" y="-120.1" font-family="Verdana" font-size="8.00" fill="#8b0000">+ comment: Comment [0..*]</text>
</g>
<!-- SensorLocation&#45;&gt;Stream -->
<g id="edge23" class="edge"><title>SensorLocation&#45;&gt;Stream</title>
<path fill="none" stroke="#000000" d="M2087.29,-432.876C2098.58,-421.264 2109.89,-409.022 2120,-397 2120.84,-396 2121.68,-394.992 2122.52,-393.979"/>
<polygon fill="#000000" stroke="#000000" points="2125.35,-396.049 2128.96,-386.089 2119.93,-391.623 2125.35,-396.049"/>
</g>
<!-- Stream&#45;&gt;Comment -->
<g id="edge16" class="edge"><title>Stream&#45;&gt;Comment</title>
<path fill="none" stroke="#000000" d="M2128.77,-119.151C2125.9,-116.663 2122.98,-114.274 2120,-112 2087.75,-87.3819 2046.46,-70.5496 2009.48,-59.3125"/>
<polygon fill="#000000" stroke="#000000" points="2010.25,-55.8933 1999.67,-56.4324 2008.28,-62.6095 2010.25,-55.8933"/>
</g>
<!-- Inventory -->
<g id="node21" class="node"><title>Inventory</title>
<path fill="#fcf2e3" stroke="none" stroke-width="0.5" d="M1092,-1124C1092,-1124 1060,-1124 1060,-1124 1054,-1124 1048,-1118 1048,-1112 1048,-1112 1048,-1100 1048,-1100 1048,-1094 1054,-1088 1060,-1088 1060,-1088 1092,-1088 1092,-1088 1098,-1088 1104,-1094 1104,-1100 1104,-1100 1104,-1112 1104,-1112 1104,-1118 1098,-1124 1092,-1124"/>
<text text-anchor="middle" x="1076" y="-1104.1" font-family="Verdana" font-size="8.00">Inventory</text>
</g>
<!-- Inventory&#45;&gt;StationGroup -->
<g id="edge1" class="edge"><title>Inventory&#45;&gt;StationGroup</title>
<path fill="none" stroke="#000000" d="M1047.94,-1104.3C908.543,-1100.68 294.01,-1083.06 215,-1052 201.585,-1046.73 188.567,-1039.21 176.438,-1030.71"/>
<polygon fill="#000000" stroke="#000000" points="178.33,-1027.76 168.19,-1024.69 174.202,-1033.41 178.33,-1027.76"/>
</g>
<!-- Inventory&#45;&gt;AuxDevice -->
<g id="edge3" class="edge"><title>Inventory&#45;&gt;AuxDevice</title>
<path fill="none" stroke="#000000" d="M1047.89,-1104.07C925.737,-1099.85 444.447,-1081.47 384,-1052 366.941,-1043.68 351.707,-1030.26 339.051,-1016.2"/>
<polygon fill="#000000" stroke="#000000" points="341.471,-1013.65 332.291,-1008.36 336.168,-1018.22 341.471,-1013.65"/>
</g>
<!-- Inventory&#45;&gt;Sensor -->
<g id="edge5" class="edge"><title>Inventory&#45;&gt;Sensor</title>
<path fill="none" stroke="#000000" d="M1047.75,-1103.79C960.122,-1099.74 694.112,-1084.95 615,-1052 607.615,-1048.92 600.317,-1045.23 593.195,-1041.1"/>
<polygon fill="#000000" stroke="#000000" points="594.637,-1037.88 584.276,-1035.67 590.995,-1043.86 594.637,-1037.88"/>
</g>
<!-- Inventory&#45;&gt;Datalogger -->
<g id="edge7" class="edge"><title>Inventory&#45;&gt;Datalogger</title>
<path fill="none" stroke="#000000" d="M1047.71,-1100.65C1010.13,-1094.19 942.006,-1080.13 878.947,-1052.18"/>
<polygon fill="#000000" stroke="#000000" points="880.235,-1048.92 869.684,-1047.95 877.33,-1055.29 880.235,-1048.92"/>
</g>
<!-- Inventory&#45;&gt;ResponsePAZ -->
<g id="edge10" class="edge"><title>Inventory&#45;&gt;ResponsePAZ</title>
<path fill="none" stroke="#000000" d="M1064.49,-1087.8C1059.5,-1080.34 1053.23,-1070.96 1046.35,-1060.68"/>
<polygon fill="#000000" stroke="#000000" points="1049.2,-1058.64 1040.73,-1052.27 1043.38,-1062.53 1049.2,-1058.64"/>
</g>
<!-- Inventory&#45;&gt;ResponseFIR -->
<g id="edge11" class="edge"><title>Inventory&#45;&gt;ResponseFIR</title>
<path fill="none" stroke="#000000" d="M1087.51,-1087.8C1095.91,-1075.24 1107.95,-1057.24 1120.36,-1038.69"/>
<polygon fill="#000000" stroke="#000000" points="1123.42,-1040.41 1126.07,-1030.15 1117.6,-1036.51 1123.42,-1040.41"/>
</g>
<!-- Inventory&#45;&gt;ResponseIIR -->
<g id="edge12" class="edge"><title>Inventory&#45;&gt;ResponseIIR</title>
<path fill="none" stroke="#000000" d="M1104.03,-1101.47C1142.58,-1095.69 1213.19,-1081.75 1266,-1052 1268.9,-1050.37 1271.78,-1048.63 1274.63,-1046.81"/>
<polygon fill="#000000" stroke="#000000" points="1276.77,-1049.59 1283.1,-1041.1 1272.85,-1043.79 1276.77,-1049.59"/>
</g>
<!-- Inventory&#45;&gt;ResponsePolynomial -->
<g id="edge13" class="edge"><title>Inventory&#45;&gt;ResponsePolynomial</title>
<path fill="none" stroke="#000000" d="M1104.01,-1103.2C1181.55,-1097.89 1397.56,-1080.85 1462,-1052 1468.8,-1048.95 1475.5,-1045.35 1482.03,-1041.35"/>
<polygon fill="#000000" stroke="#000000" points="1484.32,-1044.03 1490.82,-1035.67 1480.52,-1038.15 1484.32,-1044.03"/>
</g>
<!-- Inventory&#45;&gt;ResponseFAP -->
<g id="edge14" class="edge"><title>Inventory&#45;&gt;ResponseFAP</title>
<path fill="none" stroke="#000000" d="M1104.33,-1105.23C1209.22,-1105.66 1574.74,-1103.35 1677,-1052 1693.78,-1043.57 1708.69,-1030.12 1721.04,-1016.06"/>
<polygon fill="#000000" stroke="#000000" points="1723.88,-1018.13 1727.63,-1008.22 1718.52,-1013.62 1723.88,-1018.13"/>
</g>
<!-- Inventory&#45;&gt;Network -->
<g id="edge15" class="edge"><title>Inventory&#45;&gt;Network</title>
<path fill="none" stroke="#000000" d="M1104.38,-1104.3C1234.79,-1100.93 1773.03,-1085.1 1840,-1052 1840.31,-1051.85 1840.63,-1051.69 1840.94,-1051.53"/>
<polygon fill="#000000" stroke="#000000" points="1842.84,-1054.48 1849.78,-1046.47 1839.36,-1048.4 1842.84,-1054.48"/>
</g>
</g>
</svg>
