<?xml version="1.0" encoding="UTF-8" standalone="no"?>
<!DOCTYPE svg PUBLIC "-//W3C//DTD SVG 1.1//EN"
 "http://www.w3.org/Graphics/SVG/1.1/DTD/svg11.dtd">
<!-- Generated by graphviz version 2.38.0 (20140413.2041)
 -->
<!-- Title: G Pages: 1 -->
<svg width="411pt" height="402pt"
 viewBox="0.00 0.00 411.00 402.00" xmlns="http://www.w3.org/2000/svg" xmlns:xlink="http://www.w3.org/1999/xlink">
<g id="graph0" class="graph" transform="scale(1 1) rotate(0) translate(4 398)">
<title>G</title>
<polygon fill="white" stroke="none" points="-4,4 -4,-398 407,-398 407,4 -4,4"/>
<!-- ParameterSet -->
<g id="node1" class="node"><title>ParameterSet</title>
<path fill="#fcf2e3" stroke="none" stroke-width="0.5" d="M198.5,-322C198.5,-322 71.5,-322 71.5,-322 65.5,-322 59.5,-316 59.5,-310 59.5,-310 59.5,-247 59.5,-247 59.5,-241 65.5,-235 71.5,-235 71.5,-235 198.5,-235 198.5,-235 204.5,-235 210.5,-241 210.5,-247 210.5,-247 210.5,-310 210.5,-310 210.5,-316 204.5,-322 198.5,-322"/>
<text text-anchor="start" x="105.5" y="-309.1" font-family="Verdana" font-size="8.00">ParameterSet</text>
<text text-anchor="start" x="70" y="-298.1" font-family="Verdana" font-size="8.00" fill="#8b0000">+ publicID: string</text>
<text text-anchor="start" x="70" y="-287.1" font-family="Verdana" font-size="8.00" fill="#8b0000">+ baseID: string</text>
<text text-anchor="start" x="70" y="-276.1" font-family="Verdana" font-size="8.00" fill="#8b0000">+ moduleID: string</text>
<text text-anchor="start" x="70" y="-265.1" font-family="Verdana" font-size="8.00" fill="#8b0000">+ created: datetime &#160;[0..1]</text>
<text text-anchor="start" x="70" y="-254.1" font-family="Verdana" font-size="8.00" fill="#8b0000">+ parameter: Parameter [0..*]</text>
<text text-anchor="start" x="70" y="-243.1" font-family="Verdana" font-size="8.00" fill="#8b0000">+ comment: Comment [0..*]</text>
</g>
<!-- Parameter -->
<g id="node2" class="node"><title>Parameter</title>
<path fill="#fcf2e3" stroke="none" stroke-width="0.5" d="M130,-188C130,-188 12,-188 12,-188 6,-188 0,-182 0,-176 0,-176 0,-135 0,-135 0,-129 6,-123 12,-123 12,-123 130,-123 130,-123 136,-123 142,-129 142,-135 142,-135 142,-176 142,-176 142,-182 136,-188 130,-188"/>
<text text-anchor="start" x="48" y="-175.1" font-family="Verdana" font-size="8.00">Parameter</text>
<text text-anchor="start" x="10" y="-164.1" font-family="Verdana" font-size="8.00" fill="#8b0000">+ publicID: string</text>
<text text-anchor="start" x="10" y="-153.1" font-family="Verdana" font-size="8.00" fill="#8b0000">+ name: string</text>
<text text-anchor="start" x="10" y="-142.1" font-family="Verdana" font-size="8.00" fill="#8b0000">+ value: string</text>
<text text-anchor="start" x="10" y="-131.1" font-family="Verdana" font-size="8.00" fill="#8b0000">+ comment: Comment [0..*]</text>
</g>
<!-- ParameterSet&#45;&gt;Parameter -->
<g id="edge2" class="edge"><title>ParameterSet&#45;&gt;Parameter</title>
<path fill="none" stroke="#000000" d="M112.436,-234.84C105.955,-222.586 98.9063,-209.26 92.4916,-197.133"/>
<polygon fill="#000000" stroke="#000000" points="95.4991,-195.333 87.7297,-188.13 89.3114,-198.606 95.4991,-195.333"/>
</g>
<!-- Comment -->
<g id="node3" class="node"><title>Comment</title>
<path fill="#fcf2e3" stroke="none" stroke-width="0.5" d="M164.5,-76C164.5,-76 21.5,-76 21.5,-76 15.5,-76 9.5,-70 9.5,-64 9.5,-64 9.5,-12 9.5,-12 9.5,-6 15.5,-0 21.5,-0 21.5,-0 164.5,-0 164.5,-0 170.5,-0 176.5,-6 176.5,-12 176.5,-12 176.5,-64 176.5,-64 176.5,-70 170.5,-76 164.5,-76"/>
<text text-anchor="start" x="72.5" y="-63.6" font-family="Verdana" font-size="8.00">Comment</text>
<text text-anchor="start" x="20" y="-52.6" font-family="Verdana" font-size="8.00" fill="#8b0000">+ text: string</text>
<text text-anchor="start" x="20" y="-41.6" font-family="Verdana" font-size="8.00" fill="#8b0000">+ id: string</text>
<text text-anchor="start" x="20" y="-30.6" font-family="Verdana" font-size="8.00" fill="#8b0000">+ start: datetime &#160;[0..1]</text>
<text text-anchor="start" x="20" y="-19.6" font-family="Verdana" font-size="8.00" fill="#8b0000">+ end: datetime &#160;[0..1]</text>
<text text-anchor="start" x="20" y="-8.6" font-family="Verdana" font-size="8.00" fill="#8b0000">+ creationInfo: CreationInfo &#160;[0..1]</text>
</g>
<!-- ParameterSet&#45;&gt;Comment -->
<g id="edge4" class="edge"><title>ParameterSet&#45;&gt;Comment</title>
<path fill="none" stroke="#000000" d="M148.834,-234.83C157.628,-200.688 164.979,-152.065 151,-112 147.606,-102.271 142.313,-92.8671 136.276,-84.2277"/>
<polygon fill="#000000" stroke="#000000" points="139.076,-82.1267 130.298,-76.1932 133.46,-86.3053 139.076,-82.1267"/>
</g>
<!-- Parameter&#45;&gt;Comment -->
<g id="edge3" class="edge"><title>Parameter&#45;&gt;Comment</title>
<path fill="none" stroke="#000000" d="M77.0116,-122.939C79.1585,-111.668 81.627,-98.7083 83.9719,-86.3975"/>
<polygon fill="#000000" stroke="#000000" points="87.4698,-86.7387 85.9028,-76.2603 80.5934,-85.4288 87.4698,-86.7387"/>
</g>
<!-- ConfigModule -->
<g id="node4" class="node"><title>ConfigModule</title>
<path fill="#fcf2e3" stroke="none" stroke-width="0.5" d="M391,-316.5C391,-316.5 241,-316.5 241,-316.5 235,-316.5 229,-310.5 229,-304.5 229,-304.5 229,-252.5 229,-252.5 229,-246.5 235,-240.5 241,-240.5 241,-240.5 391,-240.5 391,-240.5 397,-240.5 403,-246.5 403,-252.5 403,-252.5 403,-304.5 403,-304.5 403,-310.5 397,-316.5 391,-316.5"/>
<text text-anchor="start" x="287" y="-304.1" font-family="Verdana" font-size="8.00">ConfigModule</text>
<text text-anchor="start" x="239" y="-293.1" font-family="Verdana" font-size="8.00" fill="#8b0000">+ publicID: string</text>
<text text-anchor="start" x="239" y="-282.1" font-family="Verdana" font-size="8.00" fill="#8b0000">+ name: string</text>
<text text-anchor="start" x="239" y="-271.1" font-family="Verdana" font-size="8.00" fill="#8b0000">+ parameterSetID: string</text>
<text text-anchor="start" x="239" y="-260.1" font-family="Verdana" font-size="8.00" fill="#8b0000">+ enabled: boolean</text>
<text text-anchor="start" x="239" y="-249.1" font-family="Verdana" font-size="8.00" fill="#8b0000">+ configStation: ConfigStation [0..*]</text>
</g>
<!-- ConfigStation -->
<g id="node5" class="node"><title>ConfigStation</title>
<path fill="#fcf2e3" stroke="none" stroke-width="0.5" d="M387.5,-199C387.5,-199 244.5,-199 244.5,-199 238.5,-199 232.5,-193 232.5,-187 232.5,-187 232.5,-124 232.5,-124 232.5,-118 238.5,-112 244.5,-112 244.5,-112 387.5,-112 387.5,-112 393.5,-112 399.5,-118 399.5,-124 399.5,-124 399.5,-187 399.5,-187 399.5,-193 393.5,-199 387.5,-199"/>
<text text-anchor="start" x="287.5" y="-186.1" font-family="Verdana" font-size="8.00">ConfigStation</text>
<text text-anchor="start" x="243" y="-175.1" font-family="Verdana" font-size="8.00" fill="#8b0000">+ publicID: string</text>
<text text-anchor="start" x="243" y="-164.1" font-family="Verdana" font-size="8.00" fill="#8b0000">+ networkCode: string</text>
<text text-anchor="start" x="243" y="-153.1" font-family="Verdana" font-size="8.00" fill="#8b0000">+ stationCode: string</text>
<text text-anchor="start" x="243" y="-142.1" font-family="Verdana" font-size="8.00" fill="#8b0000">+ enabled: boolean</text>
<text text-anchor="start" x="243" y="-131.1" font-family="Verdana" font-size="8.00" fill="#8b0000">+ creationInfo: CreationInfo &#160;[0..1]</text>
<text text-anchor="start" x="243" y="-120.1" font-family="Verdana" font-size="8.00" fill="#8b0000">+ setup: Setup [0..*]</text>
</g>
<!-- ConfigModule&#45;&gt;ConfigStation -->
<g id="edge6" class="edge"><title>ConfigModule&#45;&gt;ConfigStation</title>
<path fill="none" stroke="#000000" d="M316,-240.209C316,-230.522 316,-219.9 316,-209.571"/>
<polygon fill="#000000" stroke="#000000" points="319.5,-209.385 316,-199.385 312.5,-209.385 319.5,-209.385"/>
</g>
<!-- Setup -->
<g id="node6" class="node"><title>Setup</title>
<path fill="#fcf2e3" stroke="none" stroke-width="0.5" d="M368.5,-65C368.5,-65 263.5,-65 263.5,-65 257.5,-65 251.5,-59 251.5,-53 251.5,-53 251.5,-23 251.5,-23 251.5,-17 257.5,-11 263.5,-11 263.5,-11 368.5,-11 368.5,-11 374.5,-11 380.5,-17 380.5,-23 380.5,-23 380.5,-53 380.5,-53 380.5,-59 374.5,-65 368.5,-65"/>
<text text-anchor="start" x="304" y="-52.6" font-family="Verdana" font-size="8.00">Setup</text>
<text text-anchor="start" x="262" y="-41.6" font-family="Verdana" font-size="8.00" fill="#8b0000">+ name: string</text>
<text text-anchor="start" x="262" y="-30.6" font-family="Verdana" font-size="8.00" fill="#8b0000">+ parameterSetID: string</text>
<text text-anchor="start" x="262" y="-19.6" font-family="Verdana" font-size="8.00" fill="#8b0000">+ enabled: boolean</text>
</g>
<!-- ConfigStation&#45;&gt;Setup -->
<g id="edge7" class="edge"><title>ConfigStation&#45;&gt;Setup</title>
<path fill="none" stroke="#000000" d="M316,-111.82C316,-99.8155 316,-86.8765 316,-75.2833"/>
<polygon fill="#000000" stroke="#000000" points="319.5,-75.0802 316,-65.0802 312.5,-75.0803 319.5,-75.0802"/>
</g>
<!-- Config -->
<g id="node7" class="node"><title>Config</title>
<path fill="#fcf2e3" stroke="none" stroke-width="0.5" d="M240,-394C240,-394 210,-394 210,-394 204,-394 198,-388 198,-382 198,-382 198,-370 198,-370 198,-364 204,-358 210,-358 210,-358 240,-358 240,-358 246,-358 252,-364 252,-370 252,-370 252,-382 252,-382 252,-388 246,-394 240,-394"/>
<text text-anchor="middle" x="225" y="-374.1" font-family="Verdana" font-size="8.00">Config</text>
</g>
<!-- Config&#45;&gt;ParameterSet -->
<g id="edge1" class="edge"><title>Config&#45;&gt;ParameterSet</title>
<path fill="none" stroke="#000000" d="M208.91,-357.927C201.342,-349.897 191.883,-339.859 182.285,-329.675"/>
<polygon fill="#000000" stroke="#000000" points="184.702,-327.136 175.297,-322.259 179.608,-331.937 184.702,-327.136"/>
</g>
<!-- Config&#45;&gt;ConfigModule -->
<g id="edge5" class="edge"><title>Config&#45;&gt;ConfigModule</title>
<path fill="none" stroke="#000000" d="M241.269,-357.927C250.329,-348.419 262.07,-336.097 273.551,-324.048"/>
<polygon fill="#000000" stroke="#000000" points="276.275,-326.263 280.64,-316.609 271.208,-321.434 276.275,-326.263"/>
</g>
</g>
</svg>
