<?xml version="1.0" encoding="UTF-8" standalone="no"?>
<!DOCTYPE svg PUBLIC "-//W3C//DTD SVG 1.1//EN"
 "http://www.w3.org/Graphics/SVG/1.1/DTD/svg11.dtd">
<!-- Generated by graphviz version 2.38.0 (20140413.2041)
 -->
<!-- Title: G Pages: 1 -->
<svg width="363pt" height="411pt"
 viewBox="0.00 0.00 363.00 411.00" xmlns="http://www.w3.org/2000/svg" xmlns:xlink="http://www.w3.org/1999/xlink">
<g id="graph0" class="graph" transform="scale(1 1) rotate(0) translate(4 407)">
<title>G</title>
<polygon fill="white" stroke="none" points="-4,4 -4,-407 359,-407 359,4 -4,4"/>
<!-- ArclinkRequest -->
<g id="node1" class="node"><title>ArclinkRequest</title>
<path fill="#fcf2e3" stroke="none" stroke-width="0.5" d="M221.5,-331C221.5,-331 25.5,-331 25.5,-331 19.5,-331 13.5,-325 13.5,-319 13.5,-319 13.5,-157 13.5,-157 13.5,-151 19.5,-145 25.5,-145 25.5,-145 221.5,-145 221.5,-145 227.5,-145 233.5,-151 233.5,-157 233.5,-157 233.5,-319 233.5,-319 233.5,-325 227.5,-331 221.5,-331"/>
<text text-anchor="start" x="92" y="-318.6" font-family="Verdana" font-size="8.00">ArclinkRequest</text>
<text text-anchor="start" x="23.5" y="-307.6" font-family="Verdana" font-size="8.00" fill="#8b0000">+ publicID: string</text>
<text text-anchor="start" x="23.5" y="-296.6" font-family="Verdana" font-size="8.00" fill="#8b0000">+ requestID: string</text>
<text text-anchor="start" x="23.5" y="-285.6" font-family="Verdana" font-size="8.00" fill="#8b0000">+ userID: string</text>
<text text-anchor="start" x="23.5" y="-274.6" font-family="Verdana" font-size="8.00" fill="#8b0000">+ userIP: string</text>
<text text-anchor="start" x="23.5" y="-263.6" font-family="Verdana" font-size="8.00" fill="#8b0000">+ clientID: string</text>
<text text-anchor="start" x="23.5" y="-252.6" font-family="Verdana" font-size="8.00" fill="#8b0000">+ clientIP: string</text>
<text text-anchor="start" x="23.5" y="-241.6" font-family="Verdana" font-size="8.00" fill="#8b0000">+ type: string</text>
<text text-anchor="start" x="23.5" y="-230.6" font-family="Verdana" font-size="8.00" fill="#8b0000">+ created: datetime</text>
<text text-anchor="start" x="23.5" y="-219.6" font-family="Verdana" font-size="8.00" fill="#8b0000">+ status: string</text>
<text text-anchor="start" x="23.5" y="-208.6" font-family="Verdana" font-size="8.00" fill="#8b0000">+ message: string</text>
<text text-anchor="start" x="23.5" y="-197.6" font-family="Verdana" font-size="8.00" fill="#8b0000">+ label: string</text>
<text text-anchor="start" x="23.5" y="-186.6" font-family="Verdana" font-size="8.00" fill="#8b0000">+ header: string</text>
<text text-anchor="start" x="23.5" y="-175.6" font-family="Verdana" font-size="8.00" fill="#8b0000">+ summary: ArclinkRequestSummary &#160;[0..1]</text>
<text text-anchor="start" x="23.5" y="-164.6" font-family="Verdana" font-size="8.00" fill="#8b0000">+ arclinkStatusLine: ArclinkStatusLine [0..*]</text>
<text text-anchor="start" x="23.5" y="-153.6" font-family="Verdana" font-size="8.00" fill="#8b0000">+ arclinkRequestLine: ArclinkRequestLine [0..*]</text>
</g>
<!-- ArclinkStatusLine -->
<g id="node2" class="node"><title>ArclinkStatusLine</title>
<path fill="#fcf2e3" stroke="none" stroke-width="0.5" d="M89,-92.5C89,-92.5 12,-92.5 12,-92.5 6,-92.5 0,-86.5 0,-80.5 0,-80.5 0,-28.5 0,-28.5 0,-22.5 6,-16.5 12,-16.5 12,-16.5 89,-16.5 89,-16.5 95,-16.5 101,-22.5 101,-28.5 101,-28.5 101,-80.5 101,-80.5 101,-86.5 95,-92.5 89,-92.5"/>
<text text-anchor="start" x="14.5" y="-80.1" font-family="Verdana" font-size="8.00">ArclinkStatusLine</text>
<text text-anchor="start" x="10.5" y="-69.1" font-family="Verdana" font-size="8.00" fill="#8b0000">+ type: string</text>
<text text-anchor="start" x="10.5" y="-58.1" font-family="Verdana" font-size="8.00" fill="#8b0000">+ status: string</text>
<text text-anchor="start" x="10.5" y="-47.1" font-family="Verdana" font-size="8.00" fill="#8b0000">+ size: int &#160;[0..1]</text>
<text text-anchor="start" x="10.5" y="-36.1" font-family="Verdana" font-size="8.00" fill="#8b0000">+ message: string</text>
<text text-anchor="start" x="10.5" y="-25.1" font-family="Verdana" font-size="8.00" fill="#8b0000">+ volumeID: string</text>
</g>
<!-- ArclinkRequest&#45;&gt;ArclinkStatusLine -->
<g id="edge2" class="edge"><title>ArclinkRequest&#45;&gt;ArclinkStatusLine</title>
<path fill="none" stroke="#000000" d="M86.4653,-144.921C80.5593,-130.236 74.6719,-115.599 69.4219,-102.545"/>
<polygon fill="#000000" stroke="#000000" points="72.5204,-100.87 65.5416,-92.898 66.026,-103.482 72.5204,-100.87"/>
</g>
<!-- ArclinkRequestLine -->
<g id="node3" class="node"><title>ArclinkRequestLine</title>
<path fill="#fcf2e3" stroke="none" stroke-width="0.5" d="M263.5,-109C263.5,-109 131.5,-109 131.5,-109 125.5,-109 119.5,-103 119.5,-97 119.5,-97 119.5,-12 119.5,-12 119.5,-6 125.5,-0 131.5,-0 131.5,-0 263.5,-0 263.5,-0 269.5,-0 275.5,-6 275.5,-12 275.5,-12 275.5,-97 275.5,-97 275.5,-103 269.5,-109 263.5,-109"/>
<text text-anchor="start" x="157.5" y="-96.1" font-family="Verdana" font-size="8.00">ArclinkRequestLine</text>
<text text-anchor="start" x="129.5" y="-85.1" font-family="Verdana" font-size="8.00" fill="#8b0000">+ start: datetime</text>
<text text-anchor="start" x="129.5" y="-74.1" font-family="Verdana" font-size="8.00" fill="#8b0000">+ end: datetime</text>
<text text-anchor="start" x="129.5" y="-63.1" font-family="Verdana" font-size="8.00" fill="#8b0000">+ streamID: WaveformStreamID</text>
<text text-anchor="start" x="129.5" y="-52.1" font-family="Verdana" font-size="8.00" fill="#8b0000">+ restricted: boolean &#160;[0..1]</text>
<text text-anchor="start" x="129.5" y="-41.1" font-family="Verdana" font-size="8.00" fill="#8b0000">+ shared: boolean &#160;[0..1]</text>
<text text-anchor="start" x="129.5" y="-30.1" font-family="Verdana" font-size="8.00" fill="#8b0000">+ netClass: string</text>
<text text-anchor="start" x="129.5" y="-19.1" font-family="Verdana" font-size="8.00" fill="#8b0000">+ constraints: string</text>
<text text-anchor="start" x="129.5" y="-8.1" font-family="Verdana" font-size="8.00" fill="#8b0000">+ status: ArclinkStatusLine</text>
</g>
<!-- ArclinkRequest&#45;&gt;ArclinkRequestLine -->
<g id="edge3" class="edge"><title>ArclinkRequest&#45;&gt;ArclinkRequestLine</title>
<path fill="none" stroke="#000000" d="M161.042,-144.921C164.681,-135.995 168.313,-127.086 171.798,-118.54"/>
<polygon fill="#000000" stroke="#000000" points="175.127,-119.646 175.661,-109.064 168.645,-117.003 175.127,-119.646"/>
</g>
<!-- ArclinkUser -->
<g id="node4" class="node"><title>ArclinkUser</title>
<path fill="#fcf2e3" stroke="none" stroke-width="0.5" d="M343,-270.5C343,-270.5 264,-270.5 264,-270.5 258,-270.5 252,-264.5 252,-258.5 252,-258.5 252,-217.5 252,-217.5 252,-211.5 258,-205.5 264,-205.5 264,-205.5 343,-205.5 343,-205.5 349,-205.5 355,-211.5 355,-217.5 355,-217.5 355,-258.5 355,-258.5 355,-264.5 349,-270.5 343,-270.5"/>
<text text-anchor="start" x="279.5" y="-257.6" font-family="Verdana" font-size="8.00">ArclinkUser</text>
<text text-anchor="start" x="262.5" y="-246.6" font-family="Verdana" font-size="8.00" fill="#8b0000">+ publicID: string</text>
<text text-anchor="start" x="262.5" y="-235.6" font-family="Verdana" font-size="8.00" fill="#8b0000">+ name: string</text>
<text text-anchor="start" x="262.5" y="-224.6" font-family="Verdana" font-size="8.00" fill="#8b0000">+ email: string</text>
<text text-anchor="start" x="262.5" y="-213.6" font-family="Verdana" font-size="8.00" fill="#8b0000">+ password: string</text>
</g>
<!-- ArclinkLog -->
<g id="node5" class="node"><title>ArclinkLog</title>
<path fill="#fcf2e3" stroke="none" stroke-width="0.5" d="M231,-403C231,-403 196,-403 196,-403 190,-403 184,-397 184,-391 184,-391 184,-379 184,-379 184,-373 190,-367 196,-367 196,-367 231,-367 231,-367 237,-367 243,-373 243,-379 243,-379 243,-391 243,-391 243,-397 237,-403 231,-403"/>
<text text-anchor="middle" x="213.5" y="-383.1" font-family="Verdana" font-size="8.00">ArclinkLog</text>
</g>
<!-- ArclinkLog&#45;&gt;ArclinkRequest -->
<g id="edge1" class="edge"><title>ArclinkLog&#45;&gt;ArclinkRequest</title>
<path fill="none" stroke="#000000" d="M202.822,-366.797C198.239,-359.413 192.486,-350.144 186.182,-339.988"/>
<polygon fill="#000000" stroke="#000000" points="189.019,-337.921 180.771,-331.27 183.071,-341.613 189.019,-337.921"/>
</g>
<!-- ArclinkLog&#45;&gt;ArclinkUser -->
<g id="edge4" class="edge"><title>ArclinkLog&#45;&gt;ArclinkUser</title>
<path fill="none" stroke="#000000" d="M224.178,-366.797C237.47,-345.382 260.599,-308.119 278.463,-279.338"/>
<polygon fill="#000000" stroke="#000000" points="281.521,-281.047 283.821,-270.705 275.574,-277.355 281.521,-281.047"/>
</g>
</g>
</svg>
