<?xml version="1.0" encoding="UTF-8" standalone="no"?>
<!DOCTYPE svg PUBLIC "-//W3C//DTD SVG 1.1//EN"
 "http://www.w3.org/Graphics/SVG/1.1/DTD/svg11.dtd">
<!-- Generated by graphviz version 2.38.0 (20140413.2041)
 -->
<!-- Title: G Pages: 1 -->
<svg width="143pt" height="156pt"
 viewBox="0.00 0.00 143.00 156.00" xmlns="http://www.w3.org/2000/svg" xmlns:xlink="http://www.w3.org/1999/xlink">
<g id="graph0" class="graph" transform="scale(1 1) rotate(0) translate(4 152)">
<title>G</title>
<polygon fill="white" stroke="none" points="-4,4 -4,-152 139,-152 139,4 -4,4"/>
<!-- JournalEntry -->
<g id="node1" class="node"><title>JournalEntry</title>
<path fill="#fcf2e3" stroke="none" stroke-width="0.5" d="M123,-76C123,-76 12,-76 12,-76 6,-76 0,-70 0,-64 0,-64 0,-12 0,-12 0,-6 6,-0 12,-0 12,-0 123,-0 123,-0 129,-0 135,-6 135,-12 135,-12 135,-64 135,-64 135,-70 129,-76 123,-76"/>
<text text-anchor="start" x="42" y="-63.6" font-family="Verdana" font-size="8.00">JournalEntry</text>
<text text-anchor="start" x="10.5" y="-52.6" font-family="Verdana" font-size="8.00" fill="#8b0000">+ created: datetime &#160;[0..1]</text>
<text text-anchor="start" x="10.5" y="-41.6" font-family="Verdana" font-size="8.00" fill="#8b0000">+ objectID: string</text>
<text text-anchor="start" x="10.5" y="-30.6" font-family="Verdana" font-size="8.00" fill="#8b0000">+ sender: string</text>
<text text-anchor="start" x="10.5" y="-19.6" font-family="Verdana" font-size="8.00" fill="#8b0000">+ action: string</text>
<text text-anchor="start" x="10.5" y="-8.6" font-family="Verdana" font-size="8.00" fill="#8b0000">+ parameters: string</text>
</g>
<!-- Journaling -->
<g id="node2" class="node"><title>Journaling</title>
<path fill="#fcf2e3" stroke="none" stroke-width="0.5" d="M85,-148C85,-148 50,-148 50,-148 44,-148 38,-142 38,-136 38,-136 38,-124 38,-124 38,-118 44,-112 50,-112 50,-112 85,-112 85,-112 91,-112 97,-118 97,-124 97,-124 97,-136 97,-136 97,-142 91,-148 85,-148"/>
<text text-anchor="middle" x="67.5" y="-128.1" font-family="Verdana" font-size="8.00">Journaling</text>
</g>
<!-- Journaling&#45;&gt;JournalEntry -->
<g id="edge1" class="edge"><title>Journaling&#45;&gt;JournalEntry</title>
<path fill="none" stroke="#000000" d="M67.5,-111.647C67.5,-104.299 67.5,-95.3445 67.5,-86.267"/>
<polygon fill="#000000" stroke="#000000" points="71.0001,-86.0448 67.5,-76.0448 64.0001,-86.0448 71.0001,-86.0448"/>
</g>
</g>
</svg>
