<?xml version="1.0" encoding="UTF-8" standalone="no"?>
<svg
   xmlns:dc="http://purl.org/dc/elements/1.1/"
   xmlns:cc="http://creativecommons.org/ns#"
   xmlns:rdf="http://www.w3.org/1999/02/22-rdf-syntax-ns#"
   xmlns:svg="http://www.w3.org/2000/svg"
   xmlns="http://www.w3.org/2000/svg"
   viewBox="0 0 34.028 34.028"
   version="1.1"
   id="quakelink"
   width="34.028"
   height="34.028">
  <path
     fill="#ffffff"
     d="m 31.974,22.993 c 0.428,-1.419 0.661,-2.921 0.661,-4.479 C 32.635,11.7 28.216,5.9019999 22.095,3.8249999 21.439,1.6129999 19.393,-6.1035156e-8 16.966,-6.1035156e-8 14.499,-6.1035156e-8 12.431,1.6699999 11.813,3.9389999 5.8669999,6.1119999 1.6109999,11.826 1.6109999,18.514 c 0,1.252 0.152,2.469 0.434,3.636 -1.044,0.976 -1.69999996,2.361 -1.69999996,3.902 0,2.955 2.39299996,5.353 5.34699996,5.353 0.771,0 1.501,-0.166 2.162,-0.459 C 10.442,32.881 13.652,34.028 17.124,34.028 c 3.127,0 6.039,-0.934 8.478,-2.531 0.8,0.477 1.729,0.755 2.728,0.755 2.956,0 5.353,-2.397 5.353,-5.353 -0.002,-1.542 -0.662,-2.929 -1.709,-3.906 z m -21.185,4.689 c 0.164,-0.515 0.254,-1.061 0.254,-1.629 0,-2.78 -2.1280001,-5.065 -4.8450001,-5.321 -0.146,-0.717 -0.222,-1.457 -0.222,-2.217 0,-4.515 2.699,-8.408 6.5670001,-10.1580001 0.962,1.414 2.583,2.3440001 4.423,2.3440001 1.888,0 3.542,-0.9790001 4.495,-2.4530001 3.997,1.695 6.809,5.6590001 6.809,10.2680001 0,1.062 -0.152,2.089 -0.431,3.062 -2.725,0.248 -4.86,2.536 -4.86,5.322 0,0.354 0.037,0.697 0.102,1.03 -1.725,1.096 -3.768,1.733 -5.958,1.733 -2.352,0 -4.533,-0.733 -6.334,-1.981 z"
     id="path6"
     style="opacity:1;fill:#002f3a;fill-opacity:1" />
</svg>
