<?xml version="1.0" encoding="UTF-8"?>
<!-- Created with Inkscape (http://www.inkscape.org/) -->
<svg width="214.63" height="279.49" version="1.1" viewBox="0 0 214.63 279.49" xml:space="preserve" xmlns="http://www.w3.org/2000/svg" xmlns:cc="http://creativecommons.org/ns#" xmlns:dc="http://purl.org/dc/elements/1.1/" xmlns:rdf="http://www.w3.org/1999/02/22-rdf-syntax-ns#"><metadata><rdf:RDF><cc:Work rdf:about=""><dc:format>image/svg+xml</dc:format><dc:type rdf:resource="http://purl.org/dc/dcmitype/StillImage"/><dc:title/></cc:Work></rdf:RDF></metadata><g transform="matrix(1.3333 0 0 -1.3333 -25.018 304.57)"><g transform="scale(.1)"><path d="m187.64 2284.3h1609.7v-2096.2h-1609.7v2096.2" fill="#03202b"/><g fill="#fff"><path d="m337.82 1982.4h30.149c7.879 0 17.929-0.54 24.715 4.08 6.25 4.07 9.777 11.68 9.777 19.28 0 7.06-4.348 14.4-10.598 17.93-6.238 3.53-14.929 3.53-21.992 3.53h-32.051zm0 77.95h29.602c7.605 0 16.57-0.54 23.086 4.35 5.164 3.81 7.879 10.59 7.879 16.84 0 6.79-3.262 13.31-9.239 16.84-6.238 3.53-17.644 2.71-24.98 2.71h-26.348zm39.922 73.88c14.668 0 29.883 0 42.649-8.15 14.929-9.5 22.812-23.08 22.812-40.74 0-21.18-14.121-35.31-33.683-40.19v-0.55c23.085-4.62 38.847-22.27 38.847-46.44 0-16.3-9.785-30.7-22.82-40.2-13.574-10.05-31.777-10.05-47.805-10.05h-83.379v186.32h83.379"/><path d="m529.89 2098.1v-37.76h70.625v-35.03h-70.625v-41.29h89.629v-36.12h-133.09v186.32h133.09v-36.12h-89.629"/><path d="m701.86 2053.5h23.899c8.965 0 18.738-0.81 26.621 3.81 7.058 4.34 10.859 13.04 10.859 21.18 0 7.34-4.347 15.21-10.586 19.01-7.336 4.62-19.836 3.53-27.98 3.53h-22.813zm0-105.65h-43.457v186.32h78.496c16.563 0 33.411-0.27 47.805-9.5 15.203-10.05 23.621-28.25 23.621-46.45 0-21.19-12.215-40.74-32.312-48.07l34.492-82.3h-48.352l-28.515 73.6h-31.778v-73.6"/><path d="m893.67 2046.5 58.387 87.73h41.828l-44.817-66.54 55.96-119.78h-48.077l-36.945 80.67-26.336-37.76v-42.91h-42.375v186.32h42.375v-87.73"/><path d="m1081.4 2098.1v-37.76h70.62v-35.03h-70.62v-41.29h89.62v-36.12h-133.08v186.32h133.08v-36.12h-89.62"/><path d="m1326.4 1984.8v-36.94h-118.41v186.32h43.45v-149.38h74.96"/><path d="m1402 2098.1v-37.76h70.63v-35.03h-70.63v-41.29h89.64v-36.12h-133.1v186.32h133.1v-36.12h-89.64"/><path d="m1616.3 2026.4v-78.5h-43.46v78.5l-58.95 107.82h50.52l35.86-70.89 35.3 70.89h39.12l-58.39-107.82"/><path d="m410.88 1694.7v-36.94h-118.42v186.33h43.457v-149.39h74.961"/><path d="m538.86 1730.3-19.832 65.45-19.824-65.45zm68.438-72.52h-46.98l-11.407 38.3h-60.304l-11.68-38.3h-38.289l59.754 186.33h50.519l58.387-186.33"/><path d="m685.57 1692.3h30.149c7.879 0 17.929-0.55 24.715 4.07 6.25 4.07 9.777 11.68 9.777 19.29 0 7.05-4.348 14.39-10.598 17.92-6.238 3.52-14.929 3.52-21.992 3.52h-32.051zm0 77.95h29.602c7.605 0 16.57-0.55 23.086 4.34 5.164 3.8 7.879 10.6 7.879 16.85 0 6.77-3.262 13.3-9.239 16.83-6.238 3.53-17.644 2.72-24.98 2.72h-26.348zm39.922 73.88c14.668 0 29.883 0 42.649-8.16 14.929-9.5 22.812-23.09 22.812-40.74 0-21.18-14.121-35.3-33.684-40.2v-0.55c23.086-4.6 38.848-22.26 38.848-46.43 0-16.3-9.785-30.69-22.82-40.21-13.574-10.04-31.778-10.04-47.805-10.04h-83.379v186.33h83.379"/><path d="m1616.1 188.11h-32.39v571.86l-84.97 115.58-84.98-115.58v-571.86h-32.39v582.5l117.37 159.59 117.36-159.59v-582.5"/><path d="m364.79 621.78h57.301v21.481h-110.23v-78.852h52.926v57.371"/><path d="m516.7 621.78h57.301v21.481h-110.23v-78.852h52.926v57.371"/><path d="m668.61 621.78h57.293v21.481h-110.22v-78.852h52.925v57.371"/><path d="m820.52 621.78h57.296v21.481h-110.22v-78.852h52.926v57.371"/><path d="m972.43 621.78h57.304v21.481h-110.23v-78.852h52.926v57.371"/><path d="m1124.3 621.78h57.3v21.481h-110.22v-78.852h52.92v57.371"/><path d="m731.64 1105.9-14.387 8.27-14.684-8.43-120.02-64.96v-44.772l134.72 72.912 134.69-72.912v44.772l-120.31 65.12"/><path d="m1195.8 767.83c-132.76 127.94-307.1 198.32-491.82 198.32-145.01 0-284.43-43.457-403.19-125.7l-17.571-12.219v-48.082l39.985 27.93c112.14 77.66 243.81 118.7 380.77 118.7 177.04 0 343.94-68.422 469.97-192.65 3.69-3.629 8.65-5.668 13.82-5.668h69.77v-540.35h39.37v579.72h-101.11"/><path d="m1488.1 564.41h-35.25v134.34h35.25v-134.34"/><path d="m1548.2 564.41h-35.25v134.34h35.25v-134.34"/></g></g></g></svg>
