<?xml version="1.0" encoding="UTF-8"?>
<svg width="2092" height="804.51" version="1.1" viewBox="0 0 161.3 62.03" xmlns="http://www.w3.org/2000/svg" xmlns:cc="http://creativecommons.org/ns#" xmlns:dc="http://purl.org/dc/elements/1.1/" xmlns:rdf="http://www.w3.org/1999/02/22-rdf-syntax-ns#">
 <metadata>
  <rdf:RDF>
   <cc:Work rdf:about="">
    <dc:format>image/svg+xml</dc:format>
    <dc:type rdf:resource="http://purl.org/dc/dcmitype/StillImage"/>
    <dc:title/>
   </cc:Work>
  </rdf:RDF>
 </metadata>
 <g transform="translate(-15.728 -65.364)" clip-rule="evenodd" fill-rule="evenodd">
  <path d="m46.743 120.94c1.567 0 9.231 0.174 16.895-0.523 4.877-0.521 6.445-2.785 6.967-7.141 0.697-7.49 0.697-15.328 0.697-16.896 0-1.567 0-9.231-0.697-16.895-0.522-4.354-1.916-6.444-6.967-6.967-7.664-0.696-15.328-0.696-16.895-0.696-1.568 0-9.231 0-16.896 0.696-5.225 0.523-6.619 2.961-6.967 6.967-0.871 7.664-0.695 15.502-0.695 16.895 0 1.567-0.175 9.405 0.695 16.896 0.349 4.355 2.09 6.619 6.967 7.141 7.665 0.696 15.328 0.523 16.896 0.523v6.445c-1.568 0-11.322 0.174-20.205-0.871-5.574-0.523-9.406-5.4-9.929-10.451-1.045-10.102-0.87-17.941-0.87-19.683 0-1.567-0.175-10.102 0.87-19.682 0.523-4.876 4.355-9.754 9.929-10.45 8.883-1.045 18.637-0.871 20.205-0.871 1.567 0 10.973-0.174 20.029 0.871 5.749 0.696 9.581 5.748 10.103 10.45 0.871 9.754 0.697 18.115 0.697 19.682s0.349 9.405-0.697 19.683c-0.522 5.227-4.703 9.928-10.103 10.451-8.882 1.045-18.462 0.871-20.029 0.871z" fill="#00acec"/>
  <path d="m52.317 76.173 0.348 8.535h12.542c0.173 0 0.521 0.175 1.044 0 0.521 13.411 0 17.417-0.174 26.125l-5.748 0.35c0.173-3.832 0.173-7.141 0.173-9.059h-2.438l-0.175-8.011h-4.877l0.697 22.992c-5.574 0.174-8.883 0.174-13.934 0l0.697-22.992h-4.877l-0.349 8.011h-2.438c0 1.918 0.174 5.227 0.348 9.059l-5.748-0.35c-0.348-8.709-0.697-12.715-0.174-26.125 0.523 0.175 0.697 0 0.871 0h12.715l0.174-4.703-4.877 0.174c0.174-0.348 0.174-0.522 0.174-0.696l0.174-3.135c0-0.348 0-0.522-0.174-0.871 5.748-0.175 9.581-0.349 16.025 0z" fill="#00acec"/>
  <path d="m138.36 78.787c-0.174-1.045-0.174-2.265-0.174-3.31 0-2.265-1.045-3.658-3.656-3.658-2.787 0-4.008 1.393-3.832 3.658h2.438c0-1.045-0.174-2.09 1.219-2.09 1.395 0 1.395 1.045 1.568 2.09v1.045s-2.09 0.174-3.309 0.522c-1.221 0.349-2.266 1.219-2.266 3.484 0 1.742 0.523 3.658 2.787 3.832 1.395 0 2.264-0.871 2.613-1.219 0 0 0.174 0 0.348 0.871h2.264v-4.529h-2.438c0 0.349 0 0.522-0.174 0.696 0 0.872-0.35 2.265-1.742 2.265s-1.393-1.567-1.219-2.787c0.174-1.045 1.393-1.394 3.135-1.394v0.523h2.438z"/>
  <path d="m138.36 78.787v0.696h-2.438v-0.696zm-8.882-6.794h-2.438v12.019h2.438zm-22.643 6.794v-3.31c0-2.265-1.219-3.658-3.658-3.658-2.785 0-4.006 1.393-3.83 3.658h2.264c0.174-1.045 0-2.09 1.393-2.09 1.395 0 1.395 1.045 1.395 2.09 0.174 0.871 0 1.045 0 1.045s-1.916 0.174-3.137 0.522c-1.219 0.349-2.264 1.219-2.264 3.484 0 1.742 0.35 3.658 2.787 3.832 1.393 0 2.264-0.871 2.613-1.219 0 0 0.174 0 0.348 0.871h2.264s-0.174-2.265-0.174-4.529h-2.264c0 0.349-0.174 0.522-0.174 0.696 0 0.872-0.35 2.265-1.742 2.265-1.395 0-1.395-1.567-1.219-2.787 0.174-1.045 1.393-1.394 2.961-1.394 0 0 0.174 0.174 0.174 0.523h2.263z"/>
  <path d="m106.83 78.787v0.696h-2.264v-0.696zm3.658-6.794h-2.438s0.174 1.045 0.174 2.961v9.058h2.438v-8.884c0-0.871 0.348-1.742 1.568-1.742 1.045 0 1.393 0.871 1.393 1.742v8.884h2.613v-8.71c0-2.612-1.221-3.483-3.135-3.483-1.568 0-1.916 0.523-2.439 0.871zm12.541 5.749v-2.613c0-1.742-1.568-1.742-1.568-1.742-1.393 0-1.742 1.045-1.742 4.355 0 2.612 0 4.702 1.742 4.702s1.568-1.742 1.568-2.961v-1.741h2.438v1.741c0 2.438 0.174 4.529 0.174 4.529h-2.438c0-0.697-0.174-1.046-0.174-1.046-0.523 0.522-1.045 1.22-2.266 1.22-3.135 0-3.135-2.787-3.309-3.832v-5.748c0.174-0.697 0.697-2.787 3.135-2.787 1.742 0 2.09 0.696 2.439 0.871v-5.225h2.438v10.277zm-24.908-5.749c0-1.568 0-5.051-4.528-5.051-4.703 0-4.703 3.483-4.703 4.355 0 1.045-0.174 2.96 2.786 4.528a23.264 23.264 0 0 0 2.439 1.393c0.174 0.174 1.742 0.697 1.742 2.787 0 2.265-1.916 2.438-2.264 2.438-1.046 0-2.091-0.349-2.438-2.09v-1.567h-2.787s0 2.96 1.219 4.18 2.438 1.394 3.833 1.394c1.393 0 2.961-0.348 3.831-1.219 0.871-1.046 1.219-1.917 1.219-3.31 0-1.568-0.348-3.136-2.786-4.703-0.871-0.522-1.742-0.871-2.613-1.394-1.045-0.522-1.742-1.393-1.742-2.612s0.872-2.09 2.091-2.09c1.393 0 2.089 0.697 2.089 2.09v0.871zm28.914-2.09h2.438v-2.438h-2.438zm17.242 29.437c0-1.045-0.174-2.266-0.174-3.311 0-2.264-1.045-3.657-3.656-3.657-2.787 0-4.006 1.393-3.832 3.657h2.438c0-1.044-0.174-2.089 1.219-2.089 1.568 0 1.395 1.045 1.568 2.089v1.045s-2.09 0.176-3.309 0.523-2.266 1.219-2.266 3.484c0 1.74 0.523 3.656 2.961 3.83 1.221 0 2.092-0.869 2.439-1.219 0 0 0.174 0 0.348 0.871h2.264v-4.527h-2.438v0.695c-0.174 0.871-0.521 2.266-1.916 2.266-1.393 0-1.393-1.568-1.219-2.787 0.174-1.047 1.393-1.395 3.135-1.395v0.523h2.438z"/>
  <path d="m144.28 99.34v0.697h-2.438v-0.697zm-36.576 0c0-1.045-0.174-2.266-0.174-3.311 0-2.264-1.045-3.657-3.658-3.657-2.787 0-4.006 1.393-3.832 3.657h2.439c0-1.044-0.174-2.089 1.219-2.089 1.568 0 1.393 1.045 1.568 2.089v1.045s-2.092 0.176-3.311 0.523-2.264 1.219-2.264 3.484c0 1.74 0.521 3.656 2.961 3.83 1.219 0 2.09-0.869 2.438-1.219 0 0 0.176 0 0.35 0.871h2.264v-4.527h-2.438v0.695c-0.176 0.871-0.523 2.266-1.916 2.266-1.395 0-1.395-1.568-1.221-2.787 0.176-1.047 1.395-1.395 3.137-1.395v0.523h2.438z"/>
  <path d="m107.7 99.34v0.697h-2.438v-0.697zm16.199-1.569v3.485c0 1.045-0.35 1.916-1.568 1.916s-1.742-0.697-1.742-1.916v-5.052c0-1.917 1.045-2.09 1.568-2.09 0.871 0 1.742 0.174 1.742 2.09v1.567h2.438c0-1.045 0-1.916-0.174-2.264-0.348-2.264-2.09-3.135-4.006-2.961-2.09 0-3.484 0.697-3.832 2.961-0.174 1.219-0.174 5.225 0.174 6.618 0.174 1.395 1.393 2.787 3.832 2.787s3.658-1.219 3.832-2.959c0.174-0.871 0.174-1.916 0.174-3.137v-1.045zm-31.527-9.753h-4.005v16.72h2.438v-13.411l3.657 13.411h4.006v-16.72h-2.438v13.064zm19.508 6.27h1.742v-1.741h-1.742v-3.135l-2.438 1.045v2.09h-1.393v1.741h1.393v7.837c0 1.047 0 2.613 2.787 2.613h1.393v-1.74h-1.045c-0.348 0-0.697-0.176-0.697-1.395zm5.051-1.742h-2.438v12.192h2.438zm-2.438-2.09h2.438v-2.438h-2.438zm15.328 2.09h-2.439s0.176 1.045 0.176 2.961v9.231h2.437v-9.057c0-0.871 0.348-1.742 1.393-1.742 1.221 0 1.568 0.871 1.568 1.742v9.057h2.438v-8.883c0-2.612-1.219-3.483-3.135-3.483-1.566 0-1.916 0.523-2.438 0.871zm16.024 12.192h2.439v-16.72h-2.439zm2.439 13.586v3.485c-0.174 1.219-0.523 1.916-1.742 1.916s-1.568-0.697-1.568-1.916v-5.051c0-1.742 0.871-1.916 1.395-2.092 1.045 0 1.742 0.176 1.916 2.092l-1e-3 1.566h2.438c0-0.871-0.174-1.742-0.174-2.264-0.348-2.264-2.09-2.961-4.18-2.961-1.916 0-3.311 0.871-3.658 3.135-0.174 1.045-0.174 5.053 0 6.445 0.348 1.566 1.393 2.787 3.832 2.787s3.832-1.221 4.006-2.963c0-0.869 0.174-1.914 0.174-3.135v-1.045h-2.438zm-29.088 0v3.485c0 1.219-0.35 1.916-1.568 1.916-1.393 0-1.742-0.697-1.742-1.916v-5.051c0-1.742 0.871-1.916 1.568-2.092 0.871 0 1.742 0.176 1.742 2.092v1.566h2.438c0-0.871 0-1.742-0.174-2.264-0.348-2.264-2.09-2.961-4.006-2.961-2.09 0-3.482 0.871-3.832 3.135-0.174 1.045-0.174 5.053 0 6.445 0.35 1.566 1.568 2.787 4.006 2.787 2.439 0 3.658-1.221 3.832-2.963 0.174-0.869 0.174-1.914 0.174-3.135v-1.045h-2.438zm16.547 1.569v-3.135c0-2.266-1.219-3.832-3.832-3.832s-3.832 1.393-3.832 3.656h2.438c0-1.045 0-1.916 1.395-1.916 1.393 0 1.393 0.871 1.393 1.916 0.174 1.047 0 1.047 0 1.047s-1.916 0.174-3.135 0.521c-1.219 0.521-2.264 1.395-2.264 3.484 0 1.916 0.348 3.656 2.787 3.832 1.393 0 2.264-0.697 2.611-1.221 0 0 0.174 0 0.174 1.045h2.439s-0.174-2.264-0.174-4.701h-2.439v0.869c0 0.871-0.348 2.092-1.742 2.092-1.566 0-1.393-1.568-1.219-2.613 0.174-1.219 1.395-1.393 2.961-1.568v0.523h2.439z"/>
  <path d="m135.75 119.89v0.697h-2.439v-0.697zm-32.92 0v-3.135c0-2.266-1.219-3.832-3.832-3.832-2.612 0-3.832 1.393-3.832 3.656h2.439c0.174-1.045 0-1.916 1.393-1.916 1.395 0 1.395 0.871 1.395 1.916 0.174 1.047 0 1.047 0 1.047s-1.918 0.174-3.137 0.521c-1.219 0.521-2.264 1.395-2.264 3.484 0 1.916 0.348 3.656 2.787 3.832 1.393 0 2.264-0.697 2.613-1.221 0 0 0.174 0 0.174 1.045h2.438s-0.174-2.264-0.174-4.701h-2.438v0.869c0 0.871-0.35 2.092-1.742 2.092-1.568 0-1.395-1.568-1.221-2.613 0.176-1.219 1.395-1.393 2.963-1.568v0.523h2.438z"/>
  <path d="m102.83 119.89v0.697h-2.438v-0.697zm56.781-6.793h-2.263v12.191h2.439zm-71.237 12.191h5.921v-2.09h-3.309v-14.455h-2.612zm21.597-4.527v-1.742c0-3.309-0.174-4.355-1.566-4.355-0.174 0-1.742 0-1.742 1.742v4.703c0 0.697 0 2.613 1.742 2.613 1.392 0 1.566-1.221 1.566-2.961h2.266v1.045c-0.174 1.045-0.174 3.658-3.311 3.658-1.045 0-1.74-0.697-2.264-1.221 0 0-0.174 0.35-0.174 1.045h-2.439s0.174-1.045 0.174-2.961v-13.584h2.439v5.225c0.523-0.174 0.871-0.871 2.438-0.871 2.439 0 2.963 2.09 3.137 2.787 0 0.871 0.174 3.309 0 4.877zm17.767-7.664c-2.092-0.174-2.266 1.566-2.613 1.566 0 0 0-1.045-0.174-1.566h-2.266s0.174 1.045 0.174 2.787v9.404h2.439v-8.012c0-0.871 0.348-2.09 2.266-2.264zm12.366 1.742h1.742v-1.742h-1.742v-3.135l-2.264 1.045v2.09h-1.568v1.742h1.568v7.838c0 1.045 0 2.611 2.613 2.611h1.566v-1.74h-1.045c-0.521 0-0.871 0-0.871-1.221zm16.373-1.742c-1.742 0-2.09 1.566-2.264 1.566 0 0-0.174-1.045-0.174-1.566h-2.439s0.174 1.045 0.174 2.787v9.404h2.613v-8.012c0-0.871 0.348-2.09 2.09-2.264zm0.871-1.916h2.263v-2.438h-2.263zm7.14 6.966h-1.393v-1.393c0.174-1.916 0.871-2.092 1.566-2.092 1.047 0 1.568 0.523 1.568 2.266v1.219h-1.741v1.742h4.182c0.174-1.395 0-3.135 0-3.832-0.35-2.264-1.916-2.961-4.008-2.961-1.914 0-3.482 0.697-3.83 2.961-0.176 1.219 0 5.051 0.174 6.443 0.174 1.568 1.393 2.963 3.656 2.963 2.439 0 3.658-1.221 3.832-2.963 0.176-0.348 0.176-0.521 0.176-1.045h-2.439v0.523c0 1.045-0.348 1.742-1.568 1.742-1.219 0-1.393-0.871-1.393-2.09v-1.742h1.219v-1.741zm12.368-1.392c0-1.395 0.174-3.658-3.484-3.658-3.135 0-3.832 1.916-3.832 2.961 0 0.871 0 1.393 1.395 2.611 0.521 0.697 2.09 1.568 2.787 2.092 0.174 0.174 1.045 0.695 1.045 1.74 0 1.221-1.219 1.221-1.395 1.221-0.869 0-1.393-0.35-1.566-1.221v-1.045h-2.439s-0.174 1.568 0.523 2.613 2.264 1.395 3.482 1.395c1.047 0 2.09-0.176 2.787-0.871 0.697-0.697 0.871-1.221 0.871-2.439 0-1.045-0.174-1.742-1.568-2.961-0.521-0.348-1.566-1.219-2.264-1.566-0.695-0.35-1.219-0.871-1.219-1.742s0.523-1.221 1.393-1.221c0.873 0 1.047 0.697 1.047 1.568 0 0.174 0.174 0.523 0.174 0.523z"/>
 </g>
</svg>
